<?xml version="1.0" encoding="UTF-8"?>
<svg width="62px" height="80px" viewBox="0 0 62 80" version="1.1" xmlns="http://www.w3.org/2000/svg"
     xmlns:xlink="http://www.w3.org/1999/xlink">
    <!-- Generator: Sketch 49.1 (51147) - http://www.bohemiancoding.com/sketch -->
    <title>Page 1</title>
    <desc>Created with Sketch.</desc>
    <defs></defs>
    <g id="Icons" stroke="none" stroke-width="1" fill="none" fill-rule="evenodd">
        <g id="alert" transform="translate(-19.000000, -10.000000)" fill="#000000">
            <path d="M78.260714,10 L58.4237217,10 C57.4237918,10 56.6180122,10.8069019 56.6180122,11.8012205 L56.6180122,86.2123869 C54.2062846,86.418882 51.8001683,86.4446938 49.4063969,86.2819668 L49.4063969,45.6001964 C49.4063969,45.2545416 49.2874377,44.9560216 49.1213439,44.6844357 L49.1426668,44.6709686 L35.7597671,22.8745178 C35.434313,22.3403241 34.8518622,22.0159921 34.2245213,22.0159921 C33.5938136,22.0159921 33.0147296,22.3403241 32.6859087,22.8745178 L19.2805639,44.6709686 L19.289542,44.6754577 C19.1223259,44.9470436 19,45.2500526 19,45.6001964 L19,76.4016273 C19,76.9762222 19.2760749,77.4890931 19.7058989,77.8257698 C21.9762222,79.7942064 24.4406958,81.5572701 27.0140282,83.0476257 C33.1684786,86.6770008 40.230834,88.9877253 47.4424493,89.7407589 C49.1258329,89.9169531 50.8215613,90 52.522901,90 C54.5654065,90 56.6180122,89.8776741 58.6470506,89.6363891 C65.8934558,88.7946973 72.7717612,86.4446938 79.0934278,82.6391246 C79.4132707,82.4730308 79.6938346,82.2014449 79.8689065,81.868135 C80.0529564,81.525847 80.1146805,81.139791 80.0619345,80.7761801 L80.0619345,11.8012205 C80.0664235,10.8069019 79.2595216,10 78.260714,10 L78.260714,10 Z M29.7276426,47.4025391 L38.1883285,47.4025391 L38.1883285,84.0733675 C35.2424072,83.1216946 32.4053447,81.8894578 29.7276426,80.3901241 L29.7276426,47.4025391 Z M24.0591288,43.7944869 L29.1395806,35.5313179 C30.7488953,36.1754927 32.4850249,36.5132917 34.2290103,36.5132917 C36.0133969,36.5132917 37.7450375,36.1799818 39.3150733,35.535807 L44.3730799,43.7855089 L24.0591288,43.7855089 L24.0591288,43.7944869 Z M34.2245213,27.2591709 L37.3511258,32.3575787 C35.3871782,32.9882865 33.1684786,32.9927755 31.1035281,32.3351336 L34.2245213,27.2591709 Z M22.6080522,47.4025391 L26.1240794,47.4025391 L26.1240794,78.1983587 C24.9142877,77.370134 23.7347969,76.5026303 22.6080522,75.5644245 L22.6080522,47.4025391 Z M45.7983447,85.9015221 C44.45276,85.699516 43.1195202,85.4234411 41.7918917,85.1080873 L41.7918917,47.4025391 L45.7983447,47.4025391 L45.7983447,85.9015221 Z M76.4583713,80.0051904 C71.3824086,82.9286666 65.9372238,84.8668023 60.2249421,85.7735849 L60.2249421,50.0454514 L68.3399733,50.0454514 L68.3399733,46.4385214 L60.2249421,46.4385214 L60.2249421,42.8955601 L65.2672371,42.8955601 L65.2672371,39.2875079 L60.2249421,39.2875079 L60.2249421,35.7681139 L65.187557,35.7681139 L65.187557,32.1600617 L60.2249421,32.1600617 L60.2249421,28.6664796 L68.3399733,28.6664796 L68.3399733,25.0584274 L60.2249421,25.0584274 L60.2249421,21.9015221 L65.0742092,21.9015221 L65.0742092,18.2934699 L60.2249421,18.2934699 L60.2249421,13.6125412 L76.4583713,13.6125412 L76.4583713,80.0051904 Z"
                  id="Page-1"></path>
        </g>
    </g>
</svg>