<?xml version="1.0" encoding="UTF-8"?>
<svg width="80px" height="67px" viewBox="0 0 80 67" version="1.1" xmlns="http://www.w3.org/2000/svg"
     xmlns:xlink="http://www.w3.org/1999/xlink">
    <!-- Generator: Sketch 49.1 (51147) - http://www.bohemiancoding.com/sketch -->
    <title>noun_79279</title>
    <desc>Created with Sketch.</desc>
    <defs></defs>
    <g id="Icons" stroke="none" stroke-width="1" fill="none" fill-rule="evenodd">
        <g id="alert" transform="translate(-10.000000, -16.000000)" fill="#000000">
            <g id="noun_79279" transform="translate(10.000000, 16.000000)">
                <g id="Group">
                    <path d="M23.3534118,52.7068235 L18.8235294,52.7068235 L18.8235294,57.4127059 L32.9392941,57.4127059 L32.9392941,57.4127059 L32.9392941,48.0009412 L24.9430588,48.0009412 C24.9430588,49.968 24.3087059,51.696 23.3534118,52.7068235 L23.3534118,52.7068235 Z"
                          id="Shape"></path>
                    <path d="M51.7628235,66.8244706 L70.5863529,66.8244706 L70.5863529,38.5891765 L51.7628235,38.5891765 L51.7628235,66.8244706 L51.7628235,66.8244706 Z M56.4687059,43.2950588 L65.8804706,43.2950588 L65.8804706,62.1185882 L56.4687059,62.1185882 L56.4687059,43.2950588 L56.4687059,43.2950588 Z"
                          id="Shape"></path>
                    <polygon id="Shape"
                             points="37.6451765 24.4715294 37.6451765 57.4127059 47.0569412 57.4127059 47.0569412 52.7068235 42.3510588 52.7068235 42.3510588 29.1774118 75.2922353 29.1774118 75.2922353 33.8832941 75.2922353 38.5891765 75.2922353 52.7068235 75.2922353 57.4127059 79.9981176 57.4127059 79.9981176 24.4715294"></polygon>
                    <polygon id="Shape"
                             points="4.70588235 5.64611765 56.4687059 5.64611765 56.4687059 19.7656471 61.1745882 19.7656471 61.1745882 0.940235294 0 0.940235294 0 43.2950588 32.9392941 43.2950588 32.9392941 33.8832941 4.70588235 33.8832941"></polygon>
                </g>
            </g>
        </g>
    </g>
</svg>