<?xml version="1.0" encoding="UTF-8"?>
<svg width="69px" height="80px" viewBox="0 0 69 80" version="1.1" xmlns="http://www.w3.org/2000/svg"
     xmlns:xlink="http://www.w3.org/1999/xlink">
    <!-- Generator: Sketch 49.1 (51147) - http://www.bohemiancoding.com/sketch -->
    <title>Page 1</title>
    <desc>Created with Sketch.</desc>
    <defs></defs>
    <g id="Icons" stroke="none" stroke-width="1" fill="none" fill-rule="evenodd">
        <g id="alert" transform="translate(-16.000000, -10.000000)" fill="#000000">
            <path d="M75.7817872,32.8477386 C81.229794,38.9186883 84.5724735,46.9145435 84.5724735,55.7149823 C84.5724735,74.6482994 69.2195538,90 50.2862367,90 C31.3529197,90 16,74.6482994 16,55.7149823 C16,38.728514 28.3625503,24.6665854 44.5712544,21.9419724 L44.5712544,13.8083628 L40.7628916,13.8083628 C39.7096184,13.8083628 38.8574912,12.9562355 38.8574912,11.9041814 C38.8574912,10.8521273 39.7096184,10 40.7628916,10 L59.8095819,10 C60.8628551,10 61.7149823,10.8521273 61.7149823,11.9041814 C61.7149823,12.9562355 60.8628551,13.8083628 59.8095819,13.8083628 L56.0012191,13.8083628 L56.0012191,21.933439 C62.5293185,23.037913 68.4295989,25.9807388 73.1534804,30.2182128 L77.5908814,25.7808119 C78.3150067,25.0566866 79.4962818,25.0566866 80.2204072,25.7808119 C80.9433134,26.5049372 80.9433134,27.6849933 80.2204072,28.4091186 L75.7817872,32.8477386 Z M52.1904181,13.8083628 L48.3820553,13.8083628 L48.3820553,21.5238327 C49.0147507,21.4896989 49.6437889,21.4275265 50.2862367,21.4275265 C50.9286846,21.4275265 51.5577228,21.4848226 52.1904181,21.5189565 L52.1904181,13.8083628 Z M50.2862367,25.2383274 C33.4570279,25.2383274 19.8095819,38.8808972 19.8095819,55.7149823 C19.8095819,72.5478483 33.4570279,86.1916372 50.2862367,86.1916372 C67.1203218,86.1916372 80.7628916,72.5478483 80.7628916,55.7149823 C80.7628916,38.8857735 67.1203218,25.2383274 50.2862367,25.2383274 L50.2862367,25.2383274 Z M50.2862367,63.334146 C46.0768012,63.334146 42.667073,59.9244179 42.667073,55.7149823 C42.667073,54.2862367 43.0864318,52.9672071 43.7666707,51.8285993 L33.6862124,41.7469219 C32.962087,41.0240156 32.962087,39.8427405 33.6862124,39.1186151 C34.4139949,38.3944898 35.5903938,38.3944898 36.3145191,39.1186151 L46.3961965,49.2002926 C47.5433378,48.5139583 48.8574912,48.0958186 50.2862367,48.0958186 C54.4956723,48.0958186 57.9054005,51.5043277 57.9054005,55.7149823 C57.9054005,59.9244179 54.4956723,63.334146 50.2862367,63.334146 L50.2862367,63.334146 Z M50.2862367,51.9041814 C48.1809094,51.9041814 46.4766549,53.609655 46.4766549,55.7149823 C46.4766549,57.8190906 48.1809094,59.5233451 50.2862367,59.5233451 C52.3915641,59.5233451 54.0958186,57.8190906 54.0958186,55.7149823 C54.0958186,53.609655 52.3915641,51.9041814 50.2862367,51.9041814 L50.2862367,51.9041814 Z"
                  id="Page-1"></path>
        </g>
    </g>
</svg>