<?xml version="1.0" encoding="UTF-8"?>
<svg width="100px" height="100px" viewBox="0 0 100 100" version="1.1" xmlns="http://www.w3.org/2000/svg"
     xmlns:xlink="http://www.w3.org/1999/xlink">
    <!-- Generator: Sketch 49.1 (51147) - http://www.bohemiancoding.com/sketch -->
    <title>alert</title>
    <desc>Created with Sketch.</desc>
    <defs></defs>
    <g id="alert" stroke="none" stroke-width="1" fill="none" fill-rule="evenodd">
        <g id="Group-15" transform="translate(10.000000, 10.000000)">
            <rect id="Rectangle-13" fill="#F35353" x="0" y="0" width="80" height="80" rx="40"></rect>
            <g id="Page-1" transform="translate(35.000000, 20.000000)" fill="#FFFFFF">
                <path d="M5.97864013,33.8679934 L4.31389718,33.8679934 C3.18620232,33.8679934 2.2346932,34.6889552 2.2346932,35.7152902 L2.2346932,37.6639469 C2.2346932,38.6897512 3.18620232,39.5107131 4.31389718,39.5107131 L5.97864013,39.5107131 C7.16630182,39.5107131 8.11568823,38.6897512 8.11568823,37.6639469 L8.11568823,35.7152902 C8.11568823,34.6889552 7.16630182,33.8679934 5.97864013,33.8679934 Z"
                      id="Fill-1"></path>
                <path d="M7.78613599,0.489286899 L2.23681592,0.489286899 C1.10912106,0.489286899 0.15761194,1.31024876 0.15761194,2.33605307 L2.23681592,26.1917081 C2.23681592,27.1681592 3.18832504,28.039005 4.3160199,28.039005 L5.98076285,28.039005 C7.16842454,28.039005 8.11781095,27.1660365 8.11781095,26.1917081 L9.9253068,2.33605307 C9.9253068,1.31024876 8.97379768,0.489286899 7.78613599,0.489286899 Z"
                      id="Fill-2"></path>
            </g>
        </g>
    </g>
</svg>