<?xml version="1.0" encoding="UTF-8"?>
<svg width="36px" height="36px" viewBox="0 0 36 36" version="1.1" xmlns="http://www.w3.org/2000/svg"
     xmlns:xlink="http://www.w3.org/1999/xlink">
    <!-- Generator: Sketch 41.2 (35397) - http://www.bohemiancoding.com/sketch -->
    <title>Page 1</title>
    <desc>Created with Sketch.</desc>
    <defs></defs>
    <g id="v1" stroke="none" stroke-width="1" fill="none" fill-rule="evenodd">
        <g id="Canvas-&gt;-Web" transform="translate(-683.000000, -475.000000)" fill="#222222">
            <path d="M718.396504,480.103496 C719.130504,479.369496 719.134504,478.185496 718.400504,477.451496 L716.548504,475.599496 C715.818504,474.869496 714.630504,474.869496 713.896504,475.603496 L702.302504,487.197496 C701.568504,487.931496 700.380504,487.931496 699.646504,487.197496 L688.052504,475.603496 C687.318504,474.869496 686.134504,474.865496 685.400504,475.599496 L683.548504,477.451496 C682.818504,478.181496 682.818504,479.369496 683.552504,480.103496 L695.146504,491.697496 C695.880504,492.431496 695.880504,493.619496 695.146504,494.353496 L683.552504,505.947496 C682.818504,506.681496 682.814504,507.865496 683.548504,508.599496 L685.400504,510.451496 C686.130504,511.181496 687.318504,511.181496 688.052504,510.447496 L699.646504,498.853496 C700.380504,498.119496 701.568504,498.119496 702.302504,498.853496 L713.896504,510.447496 C714.630504,511.181496 715.814504,511.185496 716.548504,510.451496 L718.400504,508.599496 C719.130504,507.869496 719.130504,506.681496 718.396504,505.947496 L706.802504,494.353496 C706.068504,493.619496 706.068504,492.431496 706.802504,491.697496 L718.396504,480.103496 Z"
                  id="Page-1"></path>
        </g>
    </g>
</svg>