<svg width="666" height="139" viewBox="0 0 666 139" fill="none" xmlns="http://www.w3.org/2000/svg">
<mask id="path-1-inside-1" fill="white">
<path fill-rule="evenodd" clip-rule="evenodd" d="M305.28 91.728C309.456 98.496 316.224 102.96 326.88 102.96C344.16 102.96 358.56 90.864 358.56 67.536C358.56 44.208 344.16 32.112 326.88 32.112C316.224 32.112 309.456 36.576 305.28 43.344H304.992V0H283.248V100.8H304.992V91.728H305.28ZM336.24 67.536C336.24 77.04 329.616 83.088 320.832 83.088C312.192 83.088 305.568 77.04 305.568 67.536C305.568 58.032 312.192 51.984 320.832 51.984C329.616 51.984 336.24 58.032 336.24 67.536ZM439.344 67.536C439.344 46.224 423.504 32.112 401.904 32.112C380.448 32.112 364.608 46.224 364.608 67.536C364.608 88.848 380.448 102.96 401.904 102.96C423.504 102.96 439.344 88.848 439.344 67.536ZM386.352 67.536C386.352 58.032 393.264 51.984 401.904 51.984C410.688 51.984 417.456 58.032 417.456 67.536C417.456 77.04 410.688 83.088 401.904 83.088C393.264 83.088 386.352 77.04 386.352 67.536ZM445.392 67.536C445.392 90.864 459.648 102.96 476.928 102.96C487.728 102.96 494.496 98.496 498.672 91.728H498.96V100.8H520.704V34.272H498.96V43.344H498.672C494.496 36.576 487.728 32.112 476.928 32.112C459.648 32.112 445.392 44.208 445.392 67.536ZM498.384 67.536C498.384 77.04 491.76 83.088 482.976 83.088C474.336 83.088 467.712 77.04 467.712 67.536C467.712 58.032 474.336 51.984 482.976 51.984C491.76 51.984 498.384 58.032 498.384 67.536ZM577.44 54V32.256H577.008C566.496 32.256 558.864 36.864 554.976 47.808H554.688V34.272H533.376V100.8H555.12V76.32C555.12 59.328 561.024 54 575.568 54H577.44ZM581.904 67.536C581.904 90.864 596.16 102.96 613.44 102.96C624.24 102.96 631.008 98.496 635.184 91.728H635.472V100.8H657.216V0H635.472V43.344H635.184C631.008 36.576 624.24 32.112 613.44 32.112C596.16 32.112 581.904 44.208 581.904 67.536ZM634.896 67.536C634.896 77.04 628.272 83.088 619.488 83.088C610.848 83.088 604.224 77.04 604.224 67.536C604.224 58.032 610.848 51.984 619.488 51.984C628.272 51.984 634.896 58.032 634.896 67.536Z"/>
</mask>
<path fill-rule="evenodd" clip-rule="evenodd" d="M305.28 91.728C309.456 98.496 316.224 102.96 326.88 102.96C344.16 102.96 358.56 90.864 358.56 67.536C358.56 44.208 344.16 32.112 326.88 32.112C316.224 32.112 309.456 36.576 305.28 43.344H304.992V0H283.248V100.8H304.992V91.728H305.28ZM336.24 67.536C336.24 77.04 329.616 83.088 320.832 83.088C312.192 83.088 305.568 77.04 305.568 67.536C305.568 58.032 312.192 51.984 320.832 51.984C329.616 51.984 336.24 58.032 336.24 67.536ZM439.344 67.536C439.344 46.224 423.504 32.112 401.904 32.112C380.448 32.112 364.608 46.224 364.608 67.536C364.608 88.848 380.448 102.96 401.904 102.96C423.504 102.96 439.344 88.848 439.344 67.536ZM386.352 67.536C386.352 58.032 393.264 51.984 401.904 51.984C410.688 51.984 417.456 58.032 417.456 67.536C417.456 77.04 410.688 83.088 401.904 83.088C393.264 83.088 386.352 77.04 386.352 67.536ZM445.392 67.536C445.392 90.864 459.648 102.96 476.928 102.96C487.728 102.96 494.496 98.496 498.672 91.728H498.96V100.8H520.704V34.272H498.96V43.344H498.672C494.496 36.576 487.728 32.112 476.928 32.112C459.648 32.112 445.392 44.208 445.392 67.536ZM498.384 67.536C498.384 77.04 491.76 83.088 482.976 83.088C474.336 83.088 467.712 77.04 467.712 67.536C467.712 58.032 474.336 51.984 482.976 51.984C491.76 51.984 498.384 58.032 498.384 67.536ZM577.44 54V32.256H577.008C566.496 32.256 558.864 36.864 554.976 47.808H554.688V34.272H533.376V100.8H555.12V76.32C555.12 59.328 561.024 54 575.568 54H577.44ZM581.904 67.536C581.904 90.864 596.16 102.96 613.44 102.96C624.24 102.96 631.008 98.496 635.184 91.728H635.472V100.8H657.216V0H635.472V43.344H635.184C631.008 36.576 624.24 32.112 613.44 32.112C596.16 32.112 581.904 44.208 581.904 67.536ZM634.896 67.536C634.896 77.04 628.272 83.088 619.488 83.088C610.848 83.088 604.224 77.04 604.224 67.536C604.224 58.032 610.848 51.984 619.488 51.984C628.272 51.984 634.896 58.032 634.896 67.536Z" fill="#222222" stroke="black" stroke-width="2" mask="url(#path-1-inside-1)"/>
<path d="M123.267 85.4521C123.267 88.4098 122.479 90.5609 120.904 91.9053C119.368 93.2497 117.006 93.9219 113.817 93.9219C110.591 93.9219 108.209 93.2497 106.673 91.9053C105.136 90.5609 104.368 88.4098 104.368 85.4521V16.542C104.368 14.4294 102.909 13.373 99.9893 13.373C97.8766 13.373 95.7256 13.6995 93.5361 14.3525C91.3851 14.9671 89.4261 15.8314 87.6592 16.9453C85.9307 18.0208 84.5094 19.3268 83.3955 20.8633C82.2816 22.3613 81.7246 23.9938 81.7246 25.7607C81.7246 26.9899 81.8783 27.9694 82.1855 28.6992C82.5312 29.429 82.9154 29.986 83.3379 30.3701C83.7604 30.7158 84.1829 30.9463 84.6055 31.0615C85.0664 31.1383 85.3929 31.1768 85.585 31.1768C86.5452 31.1768 87.3327 31.0231 87.9473 30.7158C88.5618 30.3701 89.1188 30.0244 89.6182 29.6787C90.1175 29.2946 90.5785 28.9489 91.001 28.6416C91.4619 28.2959 91.9805 28.123 92.5566 28.123C93.0176 28.123 93.4977 28.2383 93.9971 28.4688C94.5348 28.6608 95.015 28.9873 95.4375 29.4482C95.8984 29.9092 96.2826 30.5238 96.5898 31.292C96.8971 32.0218 97.0508 32.9245 97.0508 34C97.0508 35.5365 96.7435 36.8617 96.1289 37.9756C95.5527 39.0895 94.7845 40.0306 93.8242 40.7988C92.9023 41.5286 91.8268 42.0856 90.5977 42.4697C89.4069 42.8154 88.2161 42.9883 87.0254 42.9883C85.1816 42.9883 83.5107 42.681 82.0127 42.0664C80.5531 41.4134 79.3047 40.5299 78.2676 39.416C77.2305 38.3021 76.443 36.9961 75.9053 35.498C75.3675 34 75.0986 32.4059 75.0986 30.7158C75.0986 27.5277 75.694 24.7236 76.8848 22.3037C78.0755 19.8454 79.7464 17.7327 81.8975 15.9658C84.0869 14.1989 86.6989 12.7393 89.7334 11.5869C92.7679 10.3962 96.1289 9.45508 99.8164 8.76367C103.504 8.07227 107.441 7.59212 111.628 7.32324C115.853 7.01595 120.232 6.8623 124.765 6.8623C135.75 6.8623 144.066 8.97493 149.713 13.2002C155.359 17.387 158.183 23.4176 158.183 31.292C158.183 35.1331 157.664 38.5326 156.627 41.4902C155.628 44.4479 154.265 47.0023 152.536 49.1533C150.846 51.266 148.887 52.9945 146.659 54.3389C144.431 55.6449 142.127 56.5859 139.745 57.1621C137.364 57.7383 134.963 57.9688 132.543 57.8535C130.161 57.7383 127.934 57.2965 125.859 56.5283L126.666 54.0508C129.547 54.9342 131.909 54.9727 133.753 54.166C135.635 53.321 137.095 51.8421 138.132 49.7295C139.207 47.6169 139.937 44.9473 140.321 41.7207C140.744 38.4941 140.955 34.9411 140.955 31.0615C140.955 28.1423 140.648 25.4919 140.033 23.1104C139.419 20.6904 138.574 18.6354 137.498 16.9453C136.461 15.2552 135.232 13.9492 133.811 13.0273C132.428 12.0671 130.949 11.5869 129.374 11.5869C128.145 11.5869 127.127 11.779 126.32 12.1631C125.552 12.5088 124.938 12.9697 124.477 13.5459C124.054 14.0837 123.747 14.679 123.555 15.332C123.401 15.9466 123.305 16.542 123.267 17.1182V85.4521ZM207.503 41.2021C210.922 36.2855 214.033 31.9258 216.837 28.123C219.679 24.3203 222.291 21.0169 224.673 18.2129C227.054 15.3704 229.263 12.9889 231.299 11.0684C233.373 9.14779 235.37 7.61133 237.291 6.45898C239.25 5.26823 241.19 4.42318 243.11 3.92383C245.031 3.42448 247.048 3.1748 249.16 3.1748C254.192 3.1748 256.708 4.78809 256.708 8.01465C256.708 8.43717 256.67 8.93652 256.593 9.5127C256.516 10.0889 256.362 10.6458 256.132 11.1836C255.94 11.7214 255.652 12.1823 255.268 12.5664C254.883 12.9505 254.403 13.1426 253.827 13.1426C253.405 13.1426 252.905 12.9313 252.329 12.5088C251.791 12.0863 251.158 11.6253 250.428 11.126C249.698 10.5882 248.853 10.1081 247.893 9.68555C246.932 9.22461 245.857 8.99414 244.666 8.99414C243.36 8.99414 241.862 9.5319 240.172 10.6074C238.52 11.6829 236.715 13.1426 234.756 14.9863C232.835 16.8301 230.819 18.9811 228.706 21.4395C226.632 23.8594 224.519 26.4329 222.368 29.1602C228.13 42.2969 233.2 53.6859 237.579 63.3271C241.996 72.9684 246.01 80.958 249.621 87.2959C253.27 93.5954 256.631 98.2816 259.704 101.354C262.777 104.427 265.869 105.964 268.98 105.964C269.518 105.964 270.056 105.887 270.594 105.733C271.132 105.58 271.612 105.407 272.034 105.215C272.534 105.023 273.033 104.773 273.532 104.466L274.742 106.713C274.089 107.097 273.187 107.558 272.034 108.096C270.92 108.633 269.576 109.133 268.001 109.594C266.465 110.093 264.755 110.516 262.873 110.861C260.991 111.207 258.974 111.38 256.823 111.38C253.866 111.38 251.119 110.919 248.584 109.997C246.049 109.075 243.571 107.577 241.151 105.503C238.77 103.467 236.408 100.778 234.064 97.4365C231.76 94.1331 229.34 90.0807 226.805 85.2793C224.308 80.4779 221.658 74.889 218.854 68.5127C216.049 62.1364 212.996 54.8382 209.692 46.6182L207.503 49.9023V85.4521C207.503 88.4098 206.715 90.5609 205.141 91.9053C203.604 93.2497 201.242 93.9219 198.054 93.9219C194.827 93.9219 192.446 93.2497 190.909 91.9053C189.373 90.5609 188.604 88.4098 188.604 85.4521V16.0811C188.604 15.236 188.508 14.5638 188.316 14.0645C188.124 13.5651 187.855 13.181 187.51 12.9121C187.164 12.6048 186.742 12.4128 186.242 12.3359C185.781 12.2207 185.263 12.1631 184.687 12.1631C183.841 12.1631 182.785 12.2975 181.518 12.5664C180.288 12.8353 178.982 13.2386 177.6 13.7764C176.217 14.3141 174.815 14.9863 173.394 15.793C172.011 16.5612 170.762 17.4447 169.648 18.4434C168.573 19.4421 167.689 20.556 166.998 21.7852C166.307 23.0143 165.961 24.3395 165.961 25.7607C165.961 26.9899 166.115 27.9694 166.422 28.6992C166.768 29.429 167.152 29.986 167.574 30.3701C167.997 30.7158 168.419 30.9463 168.842 31.0615C169.303 31.1383 169.629 31.1768 169.821 31.1768C170.782 31.1768 171.569 31.0231 172.184 30.7158C172.798 30.3701 173.355 30.0244 173.854 29.6787C174.354 29.2946 174.815 28.9489 175.237 28.6416C175.698 28.2959 176.217 28.123 176.793 28.123C177.254 28.123 177.734 28.2383 178.233 28.4688C178.771 28.6608 179.251 28.9873 179.674 29.4482C180.135 29.9092 180.519 30.5238 180.826 31.292C181.133 32.0218 181.287 32.9245 181.287 34C181.287 35.5365 180.98 36.8617 180.365 37.9756C179.789 39.0895 179.021 40.0306 178.061 40.7988C177.139 41.5286 176.063 42.0856 174.834 42.4697C173.643 42.8154 172.452 42.9883 171.262 42.9883C169.418 42.9883 167.747 42.681 166.249 42.0664C164.789 41.4134 163.541 40.5299 162.504 39.416C161.467 38.3021 160.679 36.9961 160.142 35.498C159.604 34 159.335 32.4059 159.335 30.7158C159.335 28.0654 159.815 25.6455 160.775 23.4561C161.736 21.2282 163.042 19.2308 164.693 17.4639C166.383 15.6969 168.342 14.1605 170.57 12.8545C172.837 11.5101 175.276 10.3962 177.888 9.5127C180.5 8.62923 183.227 7.97624 186.069 7.55371C188.912 7.09277 191.754 6.8623 194.597 6.8623C197.746 6.8623 200.186 7.1696 201.914 7.78418C203.681 8.36035 204.968 9.07096 205.774 9.91602C206.619 10.7611 207.119 11.6445 207.272 12.5664C207.426 13.4883 207.503 14.2565 207.503 14.8711V41.2021Z" fill="black"/>
</svg>
