<?xml version="1.0" encoding="UTF-8"?>
<svg width="80px" height="80px" viewBox="0 0 80 80" version="1.1" xmlns="http://www.w3.org/2000/svg"
     xmlns:xlink="http://www.w3.org/1999/xlink">
    <!-- Generator: Sketch 50.2 (55047) - http://www.bohemiancoding.com/sketch -->
    <title>language</title>
    <desc>Created with Sketch.</desc>
    <defs></defs>
    <g id="Icons" stroke="none" stroke-width="1" fill="none" fill-rule="evenodd">
        <g id="language" transform="translate(-10.000000, -10.000000)" fill="#000000">
            <path d="M10,50 C10,27.9210667 27.9210667,10 50,10 C72.0789333,10 90,27.9210667 90,50 C90,72.0789333 72.0789333,90 50,90 C27.9210667,90 10,72.0789333 10,50 Z M58.3253333,86.1088 L60.5162667,85.5456 L62.3957333,84.8586667 L62.9418667,81.4794667 C63.9712,80.1248 65.0709333,78.7125333 66.2122667,77.2544 C66.3125333,76.1792 66.4213333,75.088 66.5418667,73.9914667 C66.5290667,73.9413333 66.5205333,73.8954667 66.5088,73.8453333 C67.4794667,72.6624 68.4789333,71.4538667 69.504,70.2250667 C69.712,69.1413333 69.9338667,68.0501333 70.1621333,66.9461333 C70.7872,65.5370667 71.4336,64.112 72.0917333,62.6794667 C71.9626667,62.1248 71.8336,61.5754667 71.7045333,61.0208 C68.6336,60.0288 65.5168,59.0037333 62.3754667,57.9712 C61.3162667,56.6378667 60.2496,55.3045333 59.1872,53.9712 C56.3253333,53.4752 53.4538667,52.9749333 50.5994667,52.4746667 C49.6874667,52.3210667 48.7712,52.1664 47.8581333,52.0128 C47.2170667,52.8 46.5834667,53.5829333 45.9584,54.3541333 C44.8,54.0288 43.6458667,53.7088 42.496,53.3834667 C42.6752,53.2704 42.8501333,53.1541333 43.0293333,53.0378667 C42.2752,52.1877333 41.5253333,51.3418667 40.7829333,50.496 C40.1546667,50.2954667 39.5296,50.0917333 38.9002667,49.8912 C38.8704,49.2704 38.8458667,48.6496 38.8213333,48.0288 C38.6208,47.7546667 38.4213333,47.4794667 38.2250667,47.2042667 C37.2085333,48.0832 36.1994667,48.9461333 35.2042667,49.7994667 C34.5088,49.0250667 33.8208,48.2453333 33.1413333,47.4794667 C33.1370667,47.4538667 33.1338667,47.4336 33.1296,47.408 C33.8037333,46.2005333 34.4917333,44.9749333 35.1957333,43.7333333 C36.496,43.1253333 37.7994667,42.5088 39.104,41.8912 C39.9712,42.6666667 40.8501333,43.4538667 41.7376,44.2453333 C42.0416,44 42.3456,43.7546667 42.6421333,43.5082667 C42.8874667,42.4042667 43.1370667,41.3002667 43.3877333,40.1834667 C44.0672,38.6997333 44.7584,37.2042667 45.4538667,35.7002667 C45.4496,35.6746667 45.4496,35.6501333 45.4453333,35.6245333 C46.3413333,34.5792 47.2501333,33.5253333 48.1546667,32.4704 C49.5584,32.0288 50.9578667,31.5914667 52.3712,31.1584 C52.5504,30.3712 52.7296,29.5829333 52.9088,28.8 C52.0789333,28.2538667 51.2629333,27.7205333 50.4501333,27.1872 C51.8122667,26.6912 53.1786667,26.2005333 54.5418667,25.7162667 C55.1370667,24.7328 55.7376,23.7461333 56.3296,22.7669333 C56.3498667,22.7082667 56.3712,22.6538667 56.3914667,22.5994667 C55.2917333,20.4416 54.2378667,18.3082667 53.2373333,16.2122667 C52.4789333,16.5546667 51.712,16.9002667 50.9504,17.2501333 C50.4042667,16.6250667 49.8666667,16 49.3376,15.3834667 C48.3168,15.6629333 47.3002667,15.9584 46.2794667,16.2496 C46.4288,17.7088 46.5994667,19.1754667 46.7872,20.6496 C46.7914667,20.7786667 46.8,20.9045333 46.8042667,21.0293333 C45.8122667,22.3872 44.8128,23.7504 43.8122667,25.1082667 C43.4581333,23.9413333 43.1253333,22.7829333 42.8042667,21.6288 C42.8042667,21.6042667 42.8,21.5786667 42.8,21.5541333 C41.7088,21.3621333 40.6250667,21.1829333 39.5584,21.0165333 C39.4912,21.0293333 39.4165333,21.0453333 39.3461333,21.0624 C39.4208,20.0170667 39.4997333,18.9749333 39.5872,17.9413333 C39.5872,17.8421333 39.5957333,17.7461333 39.5957333,17.6458667 L42.0917333,14.7168 L38.7413333,15.5786667 C31.8581333,17.7205333 25.8453333,21.8378667 21.3664,27.2672 L20.4874667,28.4416 L21.5210667,30.9621333 C21.1253333,31.2704 20.7296,31.5712 20.3338667,31.8709333 C19.8624,34.0746667 19.4709333,36.2624 19.1498667,38.4416 C20.2453333,40.9962667 21.5253333,43.6085333 22.9546667,46.2666667 C23.792,47.0496 24.6453333,47.8453333 25.5210667,48.6453333 C25.7706667,48.6624 26.0213333,48.6794667 26.2709333,48.6954667 C25.7504,47.9370667 25.2373333,47.1872 24.7456,46.4373333 C24.5045333,45.792 24.2752,45.1498667 24.0544,44.5088 C24.4832,45.0496 24.9205333,45.5914667 25.3664,46.1418667 C27.0005333,47.6245333 28.6912,49.1456 30.4330667,50.6954667 C31.9829333,51.0496 33.5413333,51.4208 35.1082667,51.7877333 C37.2288,52.5162667 39.3706667,53.2586667 41.5253333,54.0170667 C41.5541333,53.9957333 41.5829333,53.9754667 41.6170667,53.9584 C41.5957333,53.9872 41.5786667,54.0170667 41.5626667,54.0458667 C42.7253333,54.7296 43.8997333,55.4122667 45.0624,56.1045333 C45.1626667,58.5504 45.3088,60.9621333 45.5082667,63.3333333 C48.1162667,66.0874667 50.7456,68.8458667 53.3418667,71.5957333 C54.5621333,76.0416 55.9168,80.3498667 57.3877333,84.4544 L58.3253333,86.1088 Z M84.4789333,51.6213333 L86.208,51.5712 L86.2624,50.5621333 C86.2624,45.5082667 85.2330667,40.6912 83.3792,36.3082667 L83.2629333,36.0629333 L82.3712,38.3210667 C81.2746667,40.0085333 80.1749333,41.7002667 79.0709333,43.3962667 C79.504,44.9002667 79.9370667,46.4042667 80.3584,47.904 C81.7546667,49.1541333 83.1296,50.3914667 84.4789333,51.6213333 Z M50.0586667,48.5546667 C49.9168,48.1578667 49.7749333,47.7621333 49.6330667,47.3621333 C49.5498667,47.3461333 49.4752,47.3333333 49.392,47.3162667 C48.1546667,47.296 46.9205333,47.2704 45.6917333,47.2458667 C45.6085333,47.2288 45.5328,47.2128 45.4496,47.1957333 C44.7296,46.9333333 44.0128,46.6666667 43.3002667,46.4042667 C42.5290667,46.6538667 41.7621333,46.9045333 41.0037333,47.1541333 C42.0629333,47.6501333 43.1296,48.1504 44.1962667,48.6581333 C45.1872,48.8170667 46.1749333,48.9792 47.1712,49.1413333 C48.1290667,48.9461333 49.0954667,48.7498667 50.0586667,48.5546667 Z M58.704,27.008 C58.3253333,25.9370667 57.9498667,24.8704 57.5872,23.808 C57.5786667,23.7578667 57.5712,23.7088 57.5669333,23.6544 C56.9749333,24.3498667 56.3754667,25.0496 55.7749333,25.7461333 C55.7088,25.808 55.6373333,25.8709333 55.5669333,25.9370667 C55.7045333,26.5418667 55.8421333,27.1456 55.9829333,27.7504 C56.7754667,27.888 57.5669333,28.0288 58.3669333,28.1621333 C58.4789333,27.7792 58.592,27.3962667 58.704,27.008 Z"></path>
        </g>
    </g>
</svg>