<?xml version="1.0" encoding="UTF-8"?>
<svg width="80px" height="80px" viewBox="0 0 80 80" version="1.1" xmlns="http://www.w3.org/2000/svg"
     xmlns:xlink="http://www.w3.org/1999/xlink">
    <!-- Generator: Sketch 49.1 (51147) - http://www.bohemiancoding.com/sketch -->
    <title>Group</title>
    <desc>Created with Sketch.</desc>
    <defs></defs>
    <g id="Icons" stroke="none" stroke-width="1" fill="none" fill-rule="evenodd">
        <g id="slack" transform="translate(-10.000000, -10.000000)" fill="#000000" fill-rule="nonzero">
            <g id="Group" transform="translate(10.000000, 10.000000)">
                <rect id="Rectangle-path"
                      transform="translate(40.189359, 39.870273) rotate(-18.518296) translate(-40.189359, -39.870273) "
                      x="34.6021884" y="34.4735744" width="11.1743406" height="10.7933971"></rect>
                <path d="M76.5714286,28.8888889 C68.3809524,1.58730159 56.5714286,-4.76190476 29.2698413,3.42857143 C1.96825397,11.6190476 -4.38095238,23.4285714 3.80952381,50.7301587 C12,78.031746 23.8095238,84.3809524 51.1111111,76.1904762 C78.4126984,68 84.7619048,56.1904762 76.5714286,28.8888889 Z M62.7936508,46.6031746 L57.6507937,48.3174603 L59.4285714,53.6507937 C60.1269841,55.8095238 58.984127,58.1587302 56.8253968,58.8571429 C56.3809524,58.984127 55.8730159,59.1111111 55.4285714,59.047619 C53.7777778,58.984127 52.1904762,57.9047619 51.6190476,56.2539683 L49.8412698,50.9206349 L39.2380952,54.4761905 L41.015873,59.8095238 C41.7142857,61.968254 40.5714286,64.3174603 38.4126984,65.015873 C37.968254,65.1428571 37.4603175,65.2698413 37.015873,65.2063492 C35.3650794,65.1428571 33.7777778,64.0634921 33.2063492,62.4126984 L31.4285714,57.0793651 L26.2857143,58.7936508 C25.8412698,58.9206349 25.3333333,59.047619 24.8888889,58.984127 C23.2380952,58.9206349 21.6507937,57.8412698 21.0793651,56.1904762 C20.3809524,54.031746 21.5238095,51.6825397 23.6825397,50.984127 L28.8253968,49.2698413 L25.3968254,39.047619 L20.2539683,40.7619048 C19.8095238,40.8888889 19.3015873,41.015873 18.8571429,40.952381 C17.2063492,40.8888889 15.6190476,39.8095238 15.047619,38.1587302 C14.3492063,36 15.4920635,33.6507937 17.6507937,32.952381 L22.7936508,31.2380952 L21.015873,25.9047619 C20.3174603,23.7460317 21.4603175,21.3968254 23.6190476,20.6984127 C25.7777778,20 28.1269841,21.1428571 28.8253968,23.3015873 L30.6031746,28.6349206 L41.2063492,25.0793651 L39.4285714,19.7460317 C38.7301587,17.5873016 39.8730159,15.2380952 42.031746,14.5396825 C44.1904762,13.8412698 46.5396825,14.984127 47.2380952,17.1428571 L49.015873,22.4761905 L54.1587302,20.7619048 C56.3174603,20.0634921 58.6666667,21.2063492 59.3650794,23.3650794 C60.0634921,25.5238095 58.9206349,27.8730159 56.7619048,28.5714286 L51.6190476,30.2857143 L55.047619,40.5079365 L60.1904762,38.7936508 C62.3492063,38.0952381 64.6984127,39.2380952 65.3968254,41.3968254 C66.0952381,43.5555556 64.952381,45.9047619 62.7936508,46.6031746 Z"
                      id="Shape"></path>
            </g>
        </g>
    </g>
</svg>