<svg fill="#FFFFFF" xmlns="http://www.w3.org/2000/svg" xmlns:xlink="http://www.w3.org/1999/xlink" version="1.1" x="0px"
     y="0px" viewBox="0 0 50 50" enable-background="new 0 0 50 50" xml:space="preserve"><g><path d="M41.8,4.2c-3,0-4.9,1.7-5.8,3.2c-3-1.6-6.7-2.5-11-2.5c-4.3,0-8,0.9-11,2.5c-0.9-1.5-2.7-3.2-5.8-3.2   c-2.9,0-4.9,2.2-4.9,5.4c0,3.4,2.5,7,3,7.6c-0.6,1.9-0.8,4-0.8,6.3c0,12.8,10.4,22.4,19.6,22.4c9.3,0,19.6-9.6,19.6-22.4   c0-2.3-0.3-4.4-0.8-6.3c0.5-0.6,3-4.2,3-7.6C46.8,6.4,44.7,4.2,41.8,4.2z M5.7,9.6c0-1.8,0.9-2.9,2.4-2.9c2.2,0,3.2,1.3,3.7,2.1   c-1.9,1.5-3.4,3.3-4.5,5.5C6.6,13.1,5.7,11.2,5.7,9.6z M25,43.3c-9.6,0-17.1-10.7-17.1-19.9C7.9,13.1,14,7.4,25,7.4   c11,0,17.1,5.7,17.1,16.1C42.1,32.6,34.6,43.3,25,43.3z M42.7,14.3c-1.1-2.2-2.6-4.1-4.5-5.5c0.4-0.8,1.5-2.1,3.7-2.1   c1.5,0,2.4,1.1,2.4,2.9C44.3,11.2,43.4,13.1,42.7,14.3z"></path><path
        d="M32.6,19.3c-2,0-3.6,1.5-3.8,1.7c-0.3,0.3-0.4,0.7-0.4,1.1c0,0.1,1,7.1,1,10c0,0.5-0.1,0.8-0.4,1.1   c-0.4,0.4-1.1,0.7-1.8,0.7c-0.6,0-1.1-0.1-1.4-0.4c-0.5-0.4-1.1-0.4-1.6,0c-0.3,0.2-0.8,0.4-1.4,0.4c-0.7,0-1.4-0.2-1.8-0.7   c-0.3-0.3-0.4-0.6-0.4-1.1c0-2.9,0.9-9.9,1-10c0.1-0.4-0.1-0.8-0.4-1.1c-0.2-0.2-1.7-1.7-3.8-1.7c-1.9,0-2.9,1.2-3.2,1.9   c-0.2,0.6,0.1,1.4,0.7,1.6c0.6,0.3,1.4,0,1.6-0.7c0-0.1,0.2-0.4,0.9-0.4c0.6,0,1.1,0.3,1.5,0.6c-0.2,1.9-0.9,7.1-0.9,9.7   c0,0.7,0.2,1.4,0.5,2c0,0.6-0.1,2.9,1.4,4.6c1.1,1.3,2.8,1.9,5,1.9c2.2,0,3.8-0.6,5-1.9c1.5-1.7,1.5-4,1.4-4.6   c0.3-0.6,0.5-1.3,0.5-2c0-2.5-0.6-7.8-0.9-9.7c0.4-0.3,1-0.6,1.5-0.6c0.6,0,0.8,0.3,0.9,0.4c0.3,0.6,1,0.9,1.6,0.7   c0.6-0.2,1-1,0.7-1.6C35.5,20.5,34.5,19.3,32.6,19.3z M25,38.1c-1.4,0-2.5-0.4-3.1-1.1c-0.2-0.3-0.4-0.6-0.5-0.9   c0.5,0.1,1,0.2,1.5,0.2c0,0,0,0,0,0c0.8,0,1.5-0.2,2.1-0.4c0.6,0.3,1.4,0.4,2.1,0.4c0,0,0,0,0,0c0.5,0,1-0.1,1.5-0.2   c-0.1,0.3-0.3,0.6-0.5,0.9C27.5,37.7,26.4,38.1,25,38.1z"></path><path
        d="M24.1,31.8c0.2,0.2,0.6,0.4,0.9,0.4c0.3,0,0.7-0.1,0.9-0.4l1.2-1.3c0.5-0.5,0.5-1.3,0-1.8c-0.5-0.5-1.3-0.5-1.8,0L25,29.2   l-0.3-0.4c-0.5-0.5-1.3-0.5-1.8,0c-0.5,0.5-0.5,1.3,0,1.8L24.1,31.8z"></path></g></svg>