<svg fill="#FFFFFF" xmlns="http://www.w3.org/2000/svg" xmlns:xlink="http://www.w3.org/1999/xlink" version="1.1" x="0px"
     y="0px" viewBox="0 0 50 50" enable-background="new 0 0 50 50" xml:space="preserve"><g><path d="M37.8,18.1c0.4,0,0.7-0.2,1-0.4c0.3-0.3,0.4-0.6,0.4-1c0-0.8-0.6-1.4-1.4-1.4c-0.8,0-1.4,0.6-1.4,1.4   C36.4,17.5,37,18.1,37.8,18.1z"></path><path
        d="M13.8,32.2l-11,5.1c-0.4,0.2-0.7,0.6-0.7,1c0,0.4,0.2,0.9,0.5,1.1L15,48.3c0.2,0.1,0.5,0.2,0.7,0.2c0.1,0,0.2,0,0.3,0   c0.3-0.1,0.6-0.3,0.8-0.6l5-9c2.6,0.1,10.6,0,14.8-4.2c3.4-3.4,3.3-7.3,2.6-9.8c5.9-1.9,9.7-5.7,9.8-5.9c0.3-0.3,0.4-0.8,0.3-1.2   c-0.1-0.4-0.5-0.8-0.9-0.9l-4-1c-1-2.9-3.7-5-6.9-5c-2.2,0-4.2,1-5.5,2.6l-2.4,2.6L26.9,2.5c-0.1-0.4-0.3-0.7-0.7-0.9   c-0.4-0.2-0.8-0.2-1.1,0c-0.3,0.2-7.7,4.2-9.3,11.3L4,3.6C3.8,3.3,3.4,3.2,3,3.3C2.6,3.4,2.3,3.6,2.1,4C2.1,4.1-3.7,16.2,8,28   C9.9,29.9,11.9,31.2,13.8,32.2z M24.8,4.8l2.7,13.6l-2,2.3l-7.5-6C18.5,9.9,22.6,6.4,24.8,4.8z M3.8,6.6l26.9,21.5   c0.5,0.4,1.3,0.3,1.8-0.2c0.4-0.5,0.3-1.3-0.2-1.8l-4.9-3.9l6.4-7.1c0.9-1.1,2.2-1.7,3.6-1.7c2.2,0,4.2,1.6,4.6,3.8   c0.1,0.5,0.5,0.8,0.9,1l2.4,0.6c-1.7,1.3-4.6,3.2-8.3,4.1c-0.4,0.1-0.7,0.4-0.8,0.7c-0.2,0.4-0.1,0.8,0,1.1c0,0,2.3,4.3-1.6,8.2   c-4.1,4.1-13.5,3.4-13.6,3.4c-0.5,0-1,0.2-1.2,0.6l-4.7,8.4l-9.6-6.8L17,33.5c2.2,0.7,4.3,0.9,5.9,0.9c1.9,0,3.2-0.3,3.4-0.3   c0.7-0.2,1.1-0.8,0.9-1.5c-0.2-0.7-0.8-1.1-1.5-0.9c-0.2,0.1-3.8,0.8-8.3-0.6c0,0,0,0,0,0c-2.4-0.8-5-2.2-7.5-4.7   C1.6,18,2.8,9.8,3.8,6.6z"></path></g></svg>