<svg fill="#FFFFFF" xmlns="http://www.w3.org/2000/svg" xmlns:xlink="http://www.w3.org/1999/xlink" version="1.1" x="0px"
     y="0px" viewBox="0 0 50 50" enable-background="new 0 0 50 50" xml:space="preserve"><g><path d="M13.8,25c-0.1,1.1-0.4,1.9-0.8,2.9c-0.8,2-1.7,4.5-1.7,10.6c0,0,0,0.1,0,0.1c0,4.4,2.6,7.4,6.4,7.6   c0.9,0.8,3.1,2.3,7.3,2.3c4.2,0,6.4-1.5,7.3-2.3c3.8-0.3,6.4-3.3,6.4-7.6c0,0,0-0.1,0-0.1c0-6.1-0.9-8.6-1.7-10.6   c-0.4-1-0.7-1.8-0.8-2.9c9.1-1.5,13.3-18,13.3-22.4c0-0.4-0.2-0.8-0.5-1c-0.3-0.2-0.7-0.3-1.1-0.2C47.1,1.7,30.4,7,29,17.6   c-1.1-0.3-2.5-0.5-4-0.5c-1.6,0-2.9,0.2-4,0.5C19.6,7,2.9,1.7,2.1,1.4C1.7,1.3,1.3,1.4,1,1.6c-0.3,0.2-0.5,0.6-0.5,1   C0.5,7,4.6,23.6,13.8,25z M21.6,45.6c0.6-0.3,1.2-0.6,1.6-0.9c0.8-0.5,1.2-0.7,1.8-0.7c0.6,0,1,0.2,1.8,0.7c0.5,0.3,1,0.6,1.6,0.9   c-0.9,0.3-2,0.5-3.4,0.5C23.6,46.1,22.5,45.9,21.6,45.6z M18.5,18.5c-0.7,0.3-1.1,0.6-1.1,0.6c-0.6,0.4-0.7,1.2-0.3,1.7   c0.4,0.6,1.2,0.7,1.7,0.3c0,0,2.3-1.5,6.1-1.5c3.8,0,6.1,1.5,6.1,1.5c0.2,0.2,0.5,0.2,0.7,0.2c0.4,0,0.8-0.2,1-0.5   c0.4-0.6,0.3-1.3-0.3-1.7c0,0-0.4-0.3-1.1-0.6C32,11,42.5,6.1,46.8,4.5C46,10.1,42,22.6,34.9,22.6c-0.7,0-1.2,0.6-1.2,1.2   c0,2.2,0.5,3.6,1,5c0.3,0.9,0.7,1.8,1,3.1c-1.1-0.7-2.4-1.1-3.9-1.1c-0.7,0-1.2,0.6-1.2,1.3c0,0.7,0.6,1.2,1.2,1.2   c3.3,0,4.5,2.7,4.5,5.3c0,2.5-1.2,5.3-4.5,5.3c-1.8,0-2.7-0.6-3.7-1.2c-0.6-0.3-1.1-0.7-1.8-0.9v-2.8l2.4-2.1   c0.5-0.5,0.6-1.2,0.1-1.8c-0.5-0.5-1.2-0.6-1.8-0.1l-2,1.8l-2-1.8c-0.5-0.5-1.3-0.4-1.8,0.1c-0.5,0.5-0.4,1.3,0.1,1.8l2.4,2.1v2.8   c-0.7,0.2-1.3,0.5-1.8,0.9c-1,0.6-1.9,1.2-3.7,1.2c-3.3,0-4.5-2.7-4.5-5.3c0-2.5,1.2-5.3,4.5-5.3c0.7,0,1.2-0.6,1.2-1.2   c0-0.7-0.6-1.3-1.2-1.3c-1.5,0-2.8,0.4-3.9,1.1c0.3-1.3,0.6-2.2,1-3.1c0.5-1.4,1-2.7,1-5c0-0.7-0.6-1.2-1.2-1.2   C8,22.6,4,10.1,3.2,4.5C7.5,6.1,18,11,18.5,18.5z"></path></g></svg>