<svg fill="#FFFFFF" xmlns="http://www.w3.org/2000/svg" xmlns:xlink="http://www.w3.org/1999/xlink" version="1.1" x="0px"
     y="0px" viewBox="0 0 50 50" enable-background="new 0 0 50 50" xml:space="preserve"><g><path d="M45.7,8.2c-9.8,0-17.8,10.5-20.7,14.6C22.2,18.6,14.1,8.2,4.3,8.2c-1.7,0-3.5,1.2-3.5,3.7c0,1.2,0.7,2.3,1.5,3.5   c0.6,1,1.3,2.1,1.5,3.1c0.3,1.9,1.3,5.9,2.5,7.4c0.5,0.6,1.2,1,2.3,1.4C7.3,28.6,6,30.5,6,33.4c0,5.6,8.6,9.8,11.2,9.8   c2.3,0,4.7-3.4,6.6-6.8v3.1c0,0.7,0.6,1.2,1.2,1.2c0.7,0,1.2-0.6,1.2-1.2v-3.1c1.9,3.4,4.3,6.8,6.6,6.8c2.6,0,11.2-4.2,11.2-9.8   c0-2.8-1.3-4.8-2.5-6.1c1-0.3,1.8-0.8,2.3-1.4c1.2-1.5,2.2-5.5,2.5-7.4c0.2-1,0.8-2.1,1.5-3.1c0.8-1.2,1.5-2.3,1.5-3.5   C49.2,9.3,47.4,8.2,45.7,8.2z M8.2,24.3c-0.5-0.6-1.5-3.3-2-6.2c-0.3-1.5-1.1-2.9-1.8-4c-0.5-0.8-1.1-1.7-1.1-2.2   c0-0.8,0.3-1.2,1-1.2c9.5,0,17.8,12.2,19.3,14.7c-1.5,0.1-4.3,0.3-7.8,0.3C9.9,25.6,8.5,24.7,8.2,24.3z M17.2,40.7   c-1.6,0-8.7-3.4-8.7-7.3c0-3.3,2.4-5,3.3-5.5c1.2,0.1,2.5,0.2,4.1,0.2c3.5,0,6.3-0.2,7.9-0.3v2.9C21.4,36,18.3,40.7,17.2,40.7z    M41.5,33.4c0,4-7,7.3-8.7,7.3c-1.1,0-4.2-4.7-6.6-10v-2.9c1.6,0.1,4.4,0.3,7.9,0.3c1.6,0,2.9-0.1,4.1-0.2   C39,28.4,41.5,30.1,41.5,33.4z M45.6,14.1c-0.7,1.2-1.6,2.5-1.8,4c-0.5,2.9-1.4,5.6-2,6.2c-0.3,0.4-1.7,1.3-7.7,1.3   c-3.5,0-6.3-0.2-7.8-0.3c1.5-2.4,9.8-14.7,19.3-14.7c0.7,0,1,0.4,1,1.2C46.7,12.4,46.1,13.3,45.6,14.1z"></path><path
        d="M23.8,18.4c0.1,0.6,0.6,0.9,1.2,0.9c0.6,0,1.1-0.4,1.2-0.9c1.8-7.1,7.3-9.1,7.6-9.2c0.6-0.2,1-0.9,0.8-1.6   c-0.2-0.6-0.9-1-1.6-0.8c-0.2,0.1-5.1,1.9-7.9,7.6c-2.8-5.7-7.7-7.5-7.9-7.6c-0.6-0.2-1.4,0.1-1.6,0.8c-0.2,0.6,0.1,1.4,0.8,1.6   C16.5,9.3,22,11.4,23.8,18.4z"></path></g></svg>