<svg fill="#FFFFFF" xmlns="http://www.w3.org/2000/svg" xmlns:xlink="http://www.w3.org/1999/xlink" version="1.1" x="0px"
     y="0px" viewBox="0 0 50 50" enable-background="new 0 0 50 50" xml:space="preserve"><g><path d="M2.9,21.7c0,3.4,2.8,6.2,6.2,6.2c1.9,0,3.5-0.8,4.7-2.1c0.5,1.7,1.1,3.1,1.6,4.4c0.7,1.8,1.4,3.4,1.4,4.8   c0,0.4,0,0.8,0,1.2c-0.1,2.2-0.1,4.4,1.5,6.1c1.3,1.4,3.5,2,6.7,2c3.3,0,5.4-0.6,6.7-2c1.6-1.6,1.6-3.9,1.5-6.1c0-0.4,0-0.8,0-1.2   c0-1.4,0.6-3,1.4-4.8c0.5-1.3,1.1-2.8,1.6-4.4c1.1,1.3,2.8,2.1,4.7,2.1c3.4,0,6.2-2.8,6.2-6.2c0-3.4-2.8-6.2-6.2-6.2h-1.2   c4.4-4,4.5-8.3,4.5-8.5c0-0.7-0.6-1.2-1.2-1.2c0,0,0,0,0,0c-0.7,0-1.2,0.6-1.2,1.2c0,0.2-0.1,4.1-4.8,7.6c-0.2-0.8-0.6-1.6-1.3-2.2   c-1.8-1.8-5.1-2.6-10.6-2.6s-8.9,0.8-10.6,2.6c-0.7,0.7-1.1,1.4-1.3,2.2c-4.7-3.5-4.8-7.4-4.8-7.6c0-0.7-0.6-1.2-1.2-1.2   c-0.7,0-1.2,0.6-1.2,1.2c0,0.2,0.1,4.5,4.5,8.5H9.1C5.7,15.6,2.9,18.3,2.9,21.7z M12.8,21.7c0,2-1.6,3.7-3.7,3.7   c-2,0-3.7-1.6-3.7-3.7c0-2,1.6-3.7,3.7-3.7h3.7V21.7z M44.6,21.7c0,2-1.6,3.7-3.7,3.7c-2,0-3.7-1.6-3.7-3.7v-3.7h3.7   C42.9,18.1,44.6,19.7,44.6,21.7z M25,12.3c4.7,0,7.6,0.6,8.9,1.9c0.6,0.6,0.8,1.4,0.9,2.4c0,0.2,0,0.4,0,0.5c0,0.3,0,0.7,0,1   c0,0.3,0,0.6,0,0.9c0,4.4-1.3,7.5-2.4,10.2c-0.8,2-1.6,3.8-1.6,5.7c0,0.4,0,0.8,0,1.2c0,1.8,0.1,3.4-0.8,4.3   c-0.8,0.8-2.5,1.2-5,1.2c-2.5,0-4.2-0.4-5-1.2c-0.9-0.9-0.8-2.5-0.8-4.3c0-0.4,0-0.8,0-1.2c0-1.9-0.7-3.7-1.6-5.7   c-1.1-2.7-2.4-5.8-2.4-10.2c0-0.3,0-0.6,0-0.9c0-0.4,0-0.7,0-1c0-0.2,0.1-0.4,0-0.6c0.1-1,0.3-1.8,0.9-2.4   C17.4,12.9,20.3,12.3,25,12.3z"></path><path
        d="M22.1,36.9c0,0,1.4-0.7,2.9-0.7c1.6,0,2.9,0.7,2.9,0.7c0.2,0.1,0.4,0.2,0.6,0.2c0.4,0,0.9-0.2,1.1-0.6   c0.3-0.6,0.1-1.4-0.5-1.7c-0.1,0-1.9-1.1-4.2-1.1c-2.3,0-4.1,1-4.2,1.1c-0.6,0.3-0.8,1.1-0.5,1.7C20.7,37.1,21.5,37.3,22.1,36.9z"></path></g></svg>