<svg xmlns="http://www.w3.org/2000/svg" xmlns:xlink="http://www.w3.org/1999/xlink" version="1.1" x="0px" y="0px"
     viewBox="0 0 50 50" enable-background="new 0 0 50 50" xml:space="preserve"><g><path fill="#FFFFFF" d="M37.5,21.2c3,0.1,4.9,1.5,5.7,2.2c0,0.4,0.3,0.9,0.7,1.1c0.6,0.3,1.4,0,1.7-0.6c0.1-0.1,0.1-0.2,0.1-0.3c0,0,0,0,0,0   c0.3-0.7,0.5-1.5,0.5-2.3c0-5.5-3.4-9.4-8.6-9.8c-0.7-2-2.9-6-10.1-6c-11.6,0-20.1,8.4-20.1,19.9c0,6.3-3.4,10.9-3.4,11   c-0.3,0.4-0.3,1.1,0,1.5c0.1,0.2,1.5,1.8,4.8,1.8c0.4,0,1,0,1.8-0.1c-0.3,0.7-0.7,1.6-1.3,2.5c-0.2,0.3-0.3,0.7-0.2,1.1   c0.1,0.4,0.4,0.7,0.7,0.8c0.2,0.1,1.6,0.6,4,0.6c2.9,0,7-0.5,10.5-4.8c1,0.3,2.9,0.6,5.7,0.6c4.9,0,7.7-2.7,7.8-2.8   c0.5-0.5,0.5-1.2,0-1.7c0,0-3.6-4-3.6-8.9C34.4,24.7,36.4,22.3,37.5,21.2z M43.7,20.6c-1.4-0.9-3.6-1.9-6.6-1.9   c-1.4,0-3.2,0-4.4,0.1v-1.6c0-0.6,1-3.2,4-3.2C40.7,13.9,43.4,16.5,43.7,20.6z M35.3,36.4c-1,0.6-2.7,1.5-5.2,1.5   c-3.8,0-5.7-0.7-5.7-0.7c-0.5-0.2-1.2-0.1-1.5,0.4c-2.3,3.2-5,4.5-9,4.5c-0.6,0-1.1,0-1.6-0.1c1.1-2.1,1.3-3.7,1.3-3.8   c0-0.4-0.1-0.9-0.5-1.1c-0.3-0.3-0.8-0.3-1.2-0.2c-0.7,0.2-2.3,0.4-3.1,0.4c-1,0-1.7-0.2-2.1-0.4c1.1-1.9,3.2-6.1,3.2-11.4   C9.9,15.1,17.2,8,27.5,8c5,0,6.8,2.2,7.5,3.6c-3.2,0.8-4.8,3.8-4.8,5.5v2.9c0,0.3,0.1,0.7,0.4,0.9c0.2,0.2,0.6,0.4,0.9,0.3   c0,0,1.2,0,2.7-0.1c-1.1,1.5-2.3,3.5-2.3,5.7C31.9,31.2,34,34.7,35.3,36.4z"></path><path
        fill="#FFFFFF"
        d="M26.4,13.3c-0.8,0-1.4,0.7-1.4,1.5c0,0.8,0.7,1.4,1.4,1.4c0.8,0,1.5-0.7,1.5-1.4C27.9,14,27.2,13.3,26.4,13.3z"></path></g></svg>