<svg fill="#FFFFFF" xmlns="http://www.w3.org/2000/svg" xmlns:xlink="http://www.w3.org/1999/xlink" version="1.1" x="0px"
     y="0px" viewBox="0 0 50 50" enable-background="new 0 0 50 50" xml:space="preserve"><g><path d="M11.6,30.6c1.7,0,2.9-0.4,3.9-1c-0.6,6.4-2.3,11-2.3,11.1c-0.2,0.4-0.1,0.9,0.2,1.3c0.2,0.3,0.6,0.4,0.9,0.4   c0.1,0,0.2,0,0.3,0c0.2-0.1,3.6-1,5.9-5.6c0.3,5.8,0.8,9.3,0.8,9.3c0.1,0.6,0.6,1.1,1.2,1.1h4.8c0.6,0,1.2-0.5,1.2-1.1   c0-0.1,0.4-3.5,0.8-9.3c2.3,4.6,5.7,5.5,5.9,5.6c0.1,0,0.2,0,0.3,0c0.3,0,0.7-0.1,0.9-0.4c0.3-0.3,0.4-0.8,0.2-1.3   c0-0.1-1.7-4.7-2.3-11.1c1,0.6,2.2,1,3.9,1c5.1,0,10.3-5,10.3-13.4c0-8.7-5.7-11.8-11-11.8c-2.6,0-4.8,0.7-6,1.2   c-1.4-2.2-3.9-3.7-6.7-3.7c-2.8,0-5.3,1.5-6.7,3.7c-1.2-0.5-3.4-1.2-6-1.2c-5.3,0-11,3.1-11,11.8C1.3,25.6,6.5,30.6,11.6,30.6z    M12.3,7.9c2.2,0,4,0.6,5.1,1c0,0.2-0.1,0.4-0.1,0.6c-1.5,0.1-3,0.2-4.3,0.5c-0.7,0.1-1.1,0.8-1,1.5c0.2,0.7,0.8,1.1,1.5,0.9   c1.5-0.3,3.1-0.5,4.9-0.5c0.7,0,1.2-0.6,1.2-1.2c0-3,2.4-5.4,5.4-5.4c3,0,5.4,2.4,5.4,5.4c0,0.7,0.6,1.2,1.2,1.2   c1.8,0,3.5,0.2,4.9,0.5c0.1,0,0.2,0,0.3,0c0.6,0,1.1-0.4,1.2-1c0.1-0.7-0.3-1.3-1-1.5c-1.3-0.3-2.8-0.5-4.3-0.5   c0-0.2-0.1-0.4-0.1-0.6c1-0.4,2.8-1,5.1-1c2.6,0,8.5,0.9,8.5,9.3c0,6.8-4,10.9-7.8,10.9c-3.7,0-4.1-2.8-4.1-3.4   c0-0.7-0.6-1.2-1.2-1.2c0,0,0,0,0,0c-0.7,0-1.2,0.6-1.2,1.2c0,5.6,0.9,10.5,1.7,13.5c-1.8-1.8-4-5.7-3.7-13.7c0,0,0-0.1,0-0.1   c0-0.9,0-1.7,0-2.6c0-0.7-0.6-1.2-1.2-1.2c-0.7,0-1.2,0.6-1.2,1.2c0,11.6-0.8,19.9-1.1,22.8h-2.6c-0.3-2.9-1.1-11.2-1.1-22.8   c0-0.7-0.6-1.2-1.2-1.2c-0.7,0-1.2,0.6-1.2,1.2c0,0.9,0,1.8,0,2.6c0,0,0,0.1,0,0.1c0.3,7.9-1.8,11.8-3.7,13.7   c0.8-3,1.7-7.9,1.7-13.5c0-0.7-0.5-1.2-1.2-1.2c0,0,0,0,0,0c-0.7,0-1.2,0.5-1.2,1.2c0,0.3-0.3,3.4-4.1,3.4c-3.8,0-7.8-4.1-7.8-10.9   C3.8,8.8,9.7,7.9,12.3,7.9z"></path></g></svg>