<svg fill="#FFFFFF" xmlns="http://www.w3.org/2000/svg" xmlns:xlink="http://www.w3.org/1999/xlink" version="1.1" x="0px"
     y="0px" viewBox="0 0 50 50" enable-background="new 0 0 50 50" xml:space="preserve"><g><path d="M25,39.5c-0.8,0-1.4,0.7-1.4,1.5c0,0.8,0.7,1.4,1.4,1.4c0.4,0,0.8-0.2,1-0.4c0.3-0.3,0.4-0.6,0.4-1   C26.4,40.1,25.8,39.5,25,39.5z"></path><path
        d="M18.8,26.9c-0.8,0-1.4,0.7-1.4,1.5c0,0.8,0.7,1.4,1.4,1.4c0.4,0,0.8-0.2,1-0.4c0.3-0.3,0.4-0.6,0.4-1   C20.2,27.6,19.6,26.9,18.8,26.9z"></path><path
        d="M31.2,26.9c-0.8,0-1.4,0.7-1.4,1.4c0,0.4,0.1,0.8,0.4,1c0.3,0.3,0.6,0.4,1,0.4c0.8,0,1.4-0.6,1.4-1.4   C32.7,27.6,32,26.9,31.2,26.9z"></path><path
        d="M40.5,22.7c2.7-6.3,2.4-16,0.9-18.7c-0.6-1-1.3-1.2-1.7-1.2c-3.1,0-8,5.3-10.9,9.9c-1.2-0.3-2.7-0.5-3.8-0.5   c-1.1,0-2.6,0.2-3.8,0.5c-2.9-4.7-7.8-9.9-10.9-9.9C9.9,2.8,9.2,3,8.6,4C7.1,6.7,6.9,16.4,9.5,22.7c-2.7,3.1-4.1,6.2-4.1,9   c0,3.8,3.2,4.6,5.7,5.2c1.8,0.4,3.6,0.9,4.6,2.2c0.6,0.8,1.1,1.6,1.6,2.4c0.2,0.4,0.5,0.7,0.7,1.1c0.1,0.2,0.2,0.3,0.3,0.5   c0,0,0,0,0.1,0.1c1.5,2.2,3.3,4,6.6,4c3.3,0,5.1-1.8,6.6-4c0,0,0,0,0.1-0.1c0.1-0.2,0.2-0.3,0.3-0.5c0.2-0.4,0.5-0.8,0.7-1.1   c0.5-0.8,1-1.7,1.6-2.4c1-1.3,2.8-1.7,4.6-2.2c2.6-0.6,5.7-1.4,5.7-5.2C44.6,28.9,43.2,25.9,40.5,22.7z M38.2,34.5   c-2,0.5-4.1,1-5.6,2.7c-0.3-0.7-0.7-1.3-1.1-1.9c-0.5-0.7-0.9-1.3-0.9-1.9c0-0.7-0.6-1.2-1.2-1.2c-0.7,0-1.2,0.6-1.2,1.2   c0,1.3,0.7,2.4,1.3,3.3c1,1.4,1.7,2.5,0.4,4.6c-1.4,2.1-2.5,3.3-4.8,3.3c-2.3,0-3.4-1.2-4.8-3.3c-1.3-2.1-0.6-3.2,0.4-4.6   c0.6-0.9,1.3-2,1.3-3.3c0-0.7-0.6-1.2-1.2-1.2c-0.7,0-1.2,0.6-1.2,1.2c0,0.6-0.4,1.2-0.9,1.9c-0.4,0.5-0.8,1.1-1.1,1.9   c-1.5-1.7-3.7-2.3-5.6-2.7c-2.8-0.7-3.8-1.1-3.8-2.8c0-2,1-4.2,2.9-6.6c0.2,0.2,0.5,0.3,0.9,0.3c0.2,0,0.5-0.1,0.7-0.2   c0.6-0.4,0.8-1.1,0.4-1.7C9.4,18.2,9.7,7.6,10.7,5.4c1.9,0.6,6.4,5.1,8.9,9.4c0,0,0,0,0,0c0,0,0,0,0,0c0.5,0.9,0.9,1.7,1.2,2.6   c0.2,0.7,0.9,1,1.6,0.8c0.7-0.2,1-0.9,0.8-1.6c-0.2-0.5-0.4-1-0.6-1.5c0.8-0.2,1.7-0.3,2.5-0.3c0.8,0,1.7,0.1,2.5,0.3   c-0.3,0.5-0.5,1.1-0.6,1.5c-0.2,0.7,0.1,1.4,0.8,1.6c0.7,0.2,1.4-0.1,1.6-0.8c0.3-0.8,0.7-1.7,1.2-2.5c0,0,0,0,0-0.1c0,0,0,0,0,0   c2.4-4.3,6.9-8.8,8.9-9.4c0.9,2.1,1.3,11.5-1.4,17.1v0c-0.2,0.4-0.4,0.7-0.6,1.1c-0.4,0.6-0.2,1.4,0.4,1.7c0.2,0.1,0.4,0.2,0.7,0.2   c0.3,0,0.6-0.1,0.9-0.3c1.9,2.4,2.9,4.6,2.9,6.6C42.1,33.4,41,33.8,38.2,34.5z"></path><path
        d="M18.5,18.8c-0.8-3-2.6-5.8-3.9-7.7c-0.4-0.6-1.2-0.7-1.7-0.3c-0.6,0.4-0.7,1.2-0.3,1.7c1.2,1.7,2.8,4.2,3.5,6.8   c0.1,0.6,0.7,0.9,1.2,0.9c0.1,0,0.2,0,0.3,0C18.2,20.1,18.6,19.5,18.5,18.8z"></path><path
        d="M37.2,10.9c-0.6-0.4-1.3-0.3-1.7,0.3c-1.4,1.8-3.1,4.7-3.9,7.7c-0.2,0.7,0.2,1.4,0.9,1.5c0.1,0,0.2,0,0.3,0   c0.6,0,1.1-0.4,1.2-0.9c0.7-2.6,2.3-5.1,3.5-6.8C37.9,12.1,37.8,11.3,37.2,10.9z"></path></g></svg>