<svg fill="#FFFFFF" xmlns="http://www.w3.org/2000/svg" xmlns:xlink="http://www.w3.org/1999/xlink" version="1.1" x="0px"
     y="0px" viewBox="0 0 50 50" enable-background="new 0 0 50 50" xml:space="preserve"><g><path d="M29.5,4.7c-0.7-0.1-1.3,0.3-1.4,1c-0.7,4.1-1.5,5.7-3,5.7c-1.5,0-2.4-1.6-3-5.7c-0.1-0.7-0.8-1.1-1.4-1   c-0.7,0.1-1.1,0.8-1,1.4c0.5,2.7,1.3,7.8,5.5,7.8c4.2,0,5.1-5,5.5-7.8C30.6,5.4,30.2,4.8,29.5,4.7z"></path><path
        d="M43.8,12.2c0-0.6-0.5-1.1-1.2-1.2c-4.6-0.4-7.2,1.3-8.6,3c-0.1-0.8-0.2-1.6-0.2-2.5c0-1.9,1.1-3.9,1.1-3.9   c0.3-0.6,0.1-1.4-0.5-1.7c-0.6-0.3-1.4-0.1-1.7,0.5c-0.1,0.1-1.4,2.6-1.4,5.1c0,4.2,1.2,6.9,2.1,8.8c0.3,0.7,0.6,1.3,0.7,1.7   c0,0,0,0,0,0c0.1,0.2,0.1,0.4,0.1,0.6c-0.1,0.2-1.3,0.8-3.3,0.8c-0.7,0-1.2,0.6-1.2,1.2c0,0.7,0.6,1.2,1.2,1.2c0.3,0,0.6,0,1,0   c-0.4,1.8-1.1,4.6-1.9,6.6c-0.6,1.4-1.6,4.4-1.9,6.5c-0.3,3.2-1.4,3.8-3.2,3.8c-1.8,0-2.9-0.6-3.2-3.8c-0.2-2.1-1.3-5.1-1.9-6.5   c-0.8-2-1.5-4.8-1.9-6.6c0.3,0,0.6,0,1,0c0.7,0,1.2-0.6,1.2-1.2c0-0.7-0.6-1.2-1.2-1.2c-0.9,0-1.7-0.1-2.2-0.3c0,0,0,0-0.1,0   c-0.6-0.2-1-0.4-1-0.5c0-0.6,0.4-1.4,0.8-2.5c0.9-1.9,2.1-4.6,2.1-8.8c0-2.5-1.3-5-1.4-5.1c-0.3-0.6-1.1-0.8-1.7-0.5   C14.9,6.2,14.6,7,15,7.6c0,0,1.1,2,1.1,3.9c0,0.9-0.1,1.7-0.2,2.5c-1.4-1.7-4-3.4-8.6-3c-0.6,0-1.1,0.6-1.2,1.2   c0,0.2-0.2,5.3,2.8,8.4c1.1,1.2,2.5,1.9,4.2,2.2c0,0,0,0,0,0.1c0,1.2,0.9,2.1,2.2,2.6c0.3,1.6,1.2,5.5,2.3,8.2   c0.7,1.6,1.5,4.2,1.7,5.8c0.2,1.5,0.7,6,5.7,6s5.5-4.5,5.7-6c0.2-1.5,1-4.2,1.7-5.8c1.1-2.7,2-6.6,2.3-8.2c1.3-0.5,2.2-1.4,2.2-2.6   c0,0,0,0,0-0.1c1.7-0.3,3.1-1,4.2-2.2C44,17.5,43.8,12.4,43.8,12.2z M10.7,18.8c-1.5-1.5-1.9-4-2-5.4c4.8,0.1,6,3,6.3,4   c-0.3,0.7-0.5,1.3-0.8,1.8c-0.2,0.3-0.3,0.7-0.4,1C12.5,20.1,11.5,19.6,10.7,18.8z M39.3,18.8c-0.8,0.8-1.8,1.3-3,1.4   c-0.1-0.3-0.3-0.6-0.4-1c-0.3-0.6-0.5-1.2-0.8-1.8c0.3-1,1.4-3.9,6.3-4C41.2,15,40.7,17.3,39.3,18.8z"></path><path
        d="M22.3,33.8c-0.5,0.4-0.6,1.2-0.2,1.7c0,0,0.2,0.3,0.2,0.7c0,0.7,0.6,1.2,1.2,1.2c0.7,0,1.2-0.6,1.2-1.2   c0-1.3-0.6-2.1-0.7-2.3C23.6,33.4,22.8,33.3,22.3,33.8z"></path><path
        d="M26.2,34c-0.1,0.1-0.7,0.9-0.7,2.3c0,0.7,0.6,1.2,1.2,1.2c0.7,0,1.2-0.6,1.2-1.2c0-0.4,0.1-0.7,0.2-0.7   c0.4-0.5,0.3-1.3-0.2-1.7C27.5,33.4,26.7,33.4,26.2,34z"></path></g></svg>