<svg fill="#FFFFFF" xmlns="http://www.w3.org/2000/svg" xmlns:xlink="http://www.w3.org/1999/xlink" version="1.1" x="0px"
     y="0px" viewBox="0 0 50 50" enable-background="new 0 0 50 50" xml:space="preserve"><g><path d="M12.8,20.8c-1.2,2.1-3.3,6-3.3,11.7c0,10.2,5.4,15.6,15.6,15.6c10.2,0,15.6-5.4,15.6-15.6c0-5.7-2.2-9.6-3.3-11.7   c-0.2-0.4-0.5-0.9-0.5-1c-0.1-0.4,0-1.3,0.1-2.1c0.1-0.8,0.2-1.7,0.2-2.6c0-6.4-3.2-13.2-12.1-13.2c-8.9,0-12.1,6.8-12.1,13.2   c0,0.9,0.1,1.8,0.2,2.6c0.1,0.8,0.2,1.7,0.1,2.1C13.2,20,13,20.4,12.8,20.8z M14.9,22c0.4-0.7,0.7-1.2,0.8-1.7   c0.2-0.9,0.1-1.8-0.1-3c-0.1-0.8-0.2-1.6-0.2-2.3c0-3.2,0.9-10.7,9.6-10.7c8.6,0,9.6,7.5,9.6,10.7c0,0.8-0.1,1.6-0.2,2.3   c-0.1,1.1-0.3,2.1-0.1,3c0.1,0.4,0.4,0.9,0.8,1.7c1.1,1.9,3,5.4,3,10.4c0,8.8-4.3,13.1-13.1,13.1c-8.8,0-13.1-4.3-13.1-13.1   C11.9,27.4,13.9,23.9,14.9,22z"></path><path
        d="M31.5,32.5c0-1.4-0.8-3.7-6.5-3.7c-5.6,0-6.5,2.3-6.5,3.7c0,0.3,0,0.6,0.1,0.9c-0.9,0.8-2.3,2.6-2.3,4.8   c0,3.6,3.3,5.9,8.7,5.9c5.4,0,8.7-2.2,8.7-5.9c0-2.3-1.4-4-2.3-4.8C31.5,33.1,31.5,32.8,31.5,32.5z M25,41.6c-3,0-6.2-0.9-6.2-3.4   c0-1.9,1.9-3.4,1.9-3.4c0.4-0.3,0.6-0.9,0.5-1.4c-0.1-0.3-0.2-0.6-0.2-1c0-0.7,1.6-1.2,4-1.2c2.4,0,4,0.5,4,1.2   c0,0.4-0.1,0.7-0.1,1c-0.2,0.5,0,1.1,0.5,1.4c0,0,1.9,1.5,1.9,3.4C31.2,40.7,28,41.6,25,41.6z"></path><path
        d="M17.2,24.5l2.9-0.7c0.8,0.3,2.8,1,4.9,1c2.1,0,4.1-0.7,4.9-1l2.9,0.7c0.7,0.2,1.3-0.2,1.5-0.9c0.2-0.7-0.2-1.3-0.9-1.5   l-3.3-0.8c-0.3-0.1-0.6,0-0.8,0.1c0,0-2.1,1-4.3,1c-2.2,0-4.3-1-4.3-1c-0.3-0.1-0.6-0.2-0.8-0.1L16.5,22c-0.7,0.2-1.1,0.8-0.9,1.5   C15.8,24.2,16.5,24.6,17.2,24.5z"></path><path
        d="M20,18.2c0.1,0,0.5-0.1,1.8-0.1c0.8,0,1.1,0,1.5,0.1c0.4,0.1,0.8,0.1,1.7,0.1c0.9,0,1.3-0.1,1.7-0.1   c0.3-0.1,0.7-0.1,1.5-0.1c1.3,0,1.7,0.1,1.8,0.1c0.6,0.2,1.3-0.1,1.5-0.7c0.3-0.6,0-1.4-0.7-1.6c-0.4-0.2-1.3-0.3-2.7-0.3   c-1,0-1.5,0.1-1.9,0.1c-0.3,0-0.6,0.1-1.3,0.1c-0.7,0-1,0-1.3-0.1c-0.4-0.1-0.9-0.1-1.9-0.1c-1.4,0-2.3,0.1-2.7,0.3   c-0.6,0.3-0.9,1-0.7,1.6C18.7,18.1,19.4,18.4,20,18.2z"></path><path
        d="M28.6,37.1c-0.1,0-1.6-0.3-3.6-0.3c-2,0-3.5,0.3-3.6,0.3c-0.7,0.1-1.1,0.8-0.9,1.5c0.1,0.6,0.6,1,1.2,1c0.1,0,0.2,0,0.3,0   c0,0,1.3-0.3,3.1-0.3c1.8,0,3.1,0.3,3.1,0.3c0.7,0.1,1.3-0.3,1.5-1C29.7,37.9,29.3,37.2,28.6,37.1z"></path><path
        d="M19.5,27.6h1.4c0.7,0,1.2-0.6,1.2-1.2c0-0.7-0.6-1.2-1.2-1.2h-1.4c-0.7,0-1.2,0.6-1.2,1.2C18.3,27,18.8,27.6,19.5,27.6z"></path><path
        d="M30.5,27.6c0.7,0,1.2-0.6,1.2-1.2c0-0.7-0.6-1.2-1.2-1.2h-1.4c-0.7,0-1.2,0.6-1.2,1.2c0,0.7,0.6,1.2,1.2,1.2H30.5z"></path><path
        d="M23.9,34.8h2.3c0.7,0,1.2-0.6,1.2-1.2c0-0.7-0.6-1.2-1.2-1.2h-2.3c-0.7,0-1.2,0.6-1.2,1.2C22.6,34.2,23.2,34.8,23.9,34.8z"></path></g></svg>
