<svg fill="#FFFFFF" xmlns="http://www.w3.org/2000/svg" xmlns:xlink="http://www.w3.org/1999/xlink" version="1.1" x="0px"
     y="0px" viewBox="0 0 50 50" enable-background="new 0 0 50 50" xml:space="preserve"><g><path d="M43.8,27.2c-0.1,0.1-1.2,1.2-3.6,1.4c-0.2-3.3-1.3-6.3-2.9-8.8c3.3-2.2,4.1-4.9,4.2-5.1c0.2-0.7-0.2-1.3-0.8-1.5   c-0.7-0.2-1.4,0.2-1.6,0.8c0,0.1-0.7,2.1-3.3,3.8c-0.8-0.9-1.7-1.7-2.7-2.4c0.1-0.5,0.1-0.9,0.1-1.4c0-2.4-1-4.5-2.6-6   c0.7-0.8,1.5-1.9,1.8-3.7c0.1-0.7-0.4-1.3-1-1.4c-0.7-0.1-1.3,0.4-1.4,1c-0.2,1.4-0.9,2.2-1.4,2.6c-1.1-0.5-2.3-0.8-3.5-0.8   c-1.3,0-2.5,0.3-3.5,0.8C21,6.2,20.3,5.4,20,4c-0.1-0.7-0.8-1.1-1.4-1c-0.7,0.1-1.1,0.7-1,1.4c0.3,1.7,1.1,2.9,1.8,3.7   c-1.6,1.5-2.6,3.7-2.6,6c0,0.5,0.1,0.9,0.1,1.4c-1,0.7-1.9,1.5-2.7,2.4c-2.6-1.7-3.2-3.7-3.3-3.8c-0.2-0.7-0.9-1-1.5-0.8   c-0.7,0.2-1,0.9-0.8,1.6c0,0.1,0.9,2.8,4.2,5.1c-1.6,2.5-2.7,5.5-2.9,8.8c-2.4-0.3-3.5-1.4-3.6-1.4c-0.5-0.5-1.3-0.5-1.8,0   c-0.5,0.5-0.5,1.3,0,1.8c0.1,0.1,1.9,1.8,5.4,2.2c0.2,3.2,1.2,6.1,2.7,8.6c-2.9,1.3-3.9,3.8-3.9,3.9c-0.2,0.6,0.1,1.4,0.7,1.6   c0.1,0.1,0.3,0.1,0.4,0.1c0.5,0,1-0.3,1.2-0.8c0,0,0.7-1.9,3.1-2.7c2.8,3.2,6.7,5.2,11,5.2c4.3,0,8.2-2,11-5.2   c2.3,0.8,3.1,2.6,3.1,2.7c0.2,0.5,0.7,0.8,1.2,0.8c0.1,0,0.3,0,0.4-0.1c0.6-0.2,1-1,0.7-1.6c0-0.1-1-2.6-3.9-3.9   c1.5-2.5,2.5-5.4,2.7-8.6c3.5-0.3,5.3-2.1,5.4-2.2c0.5-0.5,0.5-1.3,0-1.8C45.1,26.7,44.3,26.7,43.8,27.2z M19.2,14.1   c0-3.2,2.6-5.8,5.8-5.8c3.2,0,5.8,2.6,5.8,5.8c0,0,0,0,0,0C29,13.3,27,12.8,25,12.8S21,13.3,19.2,14.1   C19.2,14.1,19.2,14.1,19.2,14.1z M12.2,29.9c0-7.6,5.1-13.8,11.5-14.6v29.1C17.3,43.8,12.2,37.5,12.2,29.9z M26.3,44.5V15.4   c6.5,0.7,11.5,7,11.5,14.6C37.8,37.5,32.7,43.8,26.3,44.5z"></path><path
        d="M16.2,23.8c-0.8,0-1.4,0.7-1.4,1.5c0,0.8,0.7,1.4,1.4,1.4c0.4,0,0.8-0.2,1-0.4c0.3-0.3,0.4-0.6,0.4-1   C17.7,24.4,17,23.8,16.2,23.8z"></path><path
        d="M16.2,34.8c-0.8,0-1.4,0.7-1.4,1.5c0,0.8,0.7,1.4,1.4,1.4c0.4,0,0.8-0.2,1-0.4c0.3-0.3,0.4-0.6,0.4-1   C17.7,35.4,17,34.8,16.2,34.8z"></path><path
        d="M19.8,29.3c-0.8,0-1.4,0.7-1.4,1.5c0,0.8,0.7,1.4,1.4,1.4c0.4,0,0.8-0.2,1-0.4c0.3-0.3,0.4-0.6,0.4-1   C21.2,29.9,20.6,29.3,19.8,29.3z"></path><path
        d="M30.2,23.8c-0.8,0-1.4,0.7-1.4,1.5c0,0.8,0.7,1.4,1.4,1.4c0.4,0,0.8-0.2,1-0.4c0.3-0.3,0.4-0.6,0.4-1   C31.7,24.4,31,23.8,30.2,23.8z"></path><path
        d="M30.2,34.8c-0.8,0-1.4,0.7-1.4,1.5c0,0.8,0.7,1.4,1.4,1.4c0.4,0,0.8-0.2,1-0.4c0.3-0.3,0.4-0.6,0.4-1   C31.7,35.4,31,34.8,30.2,34.8z"></path><path
        d="M32.3,30.7c0,0.8,0.7,1.4,1.4,1.4c0.4,0,0.8-0.2,1-0.4c0.3-0.3,0.4-0.6,0.4-1c0-0.8-0.6-1.4-1.5-1.4   C33,29.3,32.3,29.9,32.3,30.7z"></path></g></svg>
