<svg fill="#FFFFFF" xmlns="http://www.w3.org/2000/svg" xmlns:xlink="http://www.w3.org/1999/xlink" version="1.1" x="0px"
     y="0px" viewBox="0 0 50 50" enable-background="new 0 0 50 50" xml:space="preserve"><g><path d="M25,48.8c12.9,0,23.8-11.3,23.8-24.8C48.8,9.8,39.9,1.2,25,1.2C10.1,1.2,1.2,9.8,1.2,24C1.2,37.4,12.1,48.8,25,48.8z    M25,3.8c19.2,0,21.2,14.2,21.2,20.2c0,12.1-9.7,22.2-21.2,22.2C13.5,46.2,3.8,36.1,3.8,24C3.8,17.9,5.8,3.8,25,3.8z"></path><path
        d="M18.3,38.7C18.3,38.7,18.3,38.7,18.3,38.7l0.3,0.7c0.2,0.4,0.6,0.7,1.1,0.7h10.5c0.5,0,0.9-0.3,1.1-0.7l0.3-0.6   c0,0,0,0,0,0c0.1-0.2,0.2-0.4,0.3-0.6l8.7-17.5c0.2-0.4,0.2-1-0.2-1.3l-6.2-7.6c-0.2-0.3-0.6-0.5-1-0.5H16.8c-0.4,0-0.7,0.2-1,0.5   l-6.2,7.6c-0.3,0.4-0.4,0.9-0.2,1.3L18,38.1C18.1,38.3,18.1,38.5,18.3,38.7z M25,34.6l3.4,2.9h-6.9L25,34.6z M17.3,13.7h15.3   l5.4,6.5l-7.7,15.6l-4.1-3.5l0-2.2l1.9-3.4c0.2-0.4,0.2-0.9,0-1.3c-0.2-0.4-0.6-0.6-1.1-0.6h-4.2c-0.4,0-0.9,0.2-1.1,0.6   c-0.2,0.4-0.2,0.9,0,1.2l1.9,3.4l0,2.2l-4.1,3.5L12,20.2L17.3,13.7z"></path><path
        d="M21,22.8c0.7,0,1.2-0.6,1.2-1.2c0-0.7-0.6-1.2-1.2-1.2h-2.6c-0.7,0-1.2,0.6-1.2,1.2c0,0.7,0.6,1.2,1.2,1.2H21z"></path><path
        d="M29,22.8h2.6c0.7,0,1.2-0.6,1.2-1.2c0-0.7-0.6-1.2-1.2-1.2H29c-0.7,0-1.2,0.6-1.2,1.2C27.8,22.2,28.3,22.8,29,22.8z"></path></g></svg>