<svg fill="#FFFFFF" xmlns="http://www.w3.org/2000/svg" xmlns:xlink="http://www.w3.org/1999/xlink" version="1.1" x="0px"
     y="0px" viewBox="0 0 50 50" enable-background="new 0 0 50 50" xml:space="preserve"><path d="M15.7,27.2c-1.4,1.1-1.9,1.5-4.2,3.8c-1.3,1.3-2,2.1-2.7,3.1c-1.2-0.5-3.8-1.5-5.9-0.7C2.4,33.5,2,34,2.1,34.6  c0,0.3,0.2,2.8,3.5,6.6c0,0,0,0,0,0c0.5,0.5,1,1.1,1.5,1.7c0.5,0.5,1,1,1.5,1.4c0,0,0,0,0,0c3.9,3.4,6.4,3.6,6.7,3.6c0,0,0,0,0,0  c0.5,0,1-0.3,1.2-0.8c0.8-2.1-0.2-4.7-0.7-5.9c1-0.6,1.7-1.3,3.1-2.7c2.3-2.3,2.7-2.8,3.8-4.2c0.2-0.3,0.5-0.6,0.8-1  c0.2-0.2,0.6-0.5,1.2-0.9l3.2,3.2c0.2,0.2,0.6,0.4,0.9,0.4c0.1,0,0.1,0,0.2,0l2.6-0.5c0.7-0.1,1.1-0.8,1-1.5c-0.1-0.7-0.8-1.1-1.5-1  l-1.9,0.3l-2.6-2.6c0.1-0.1,0.2-0.1,0.2-0.2c0.1,0.1,0.1,0.1,0.2,0.2l4.1,1.6c0.1,0,0.3,0.1,0.4,0.1l4.1,0.2c0,0,0,0,0.1,0  c0.7,0,1.2-0.5,1.2-1.2c0-0.7-0.5-1.3-1.2-1.3L32,29.9l-3.3-1.3c0.3-0.4,0.6-0.8,0.8-1.3l3.7,1.2c0.1,0,0.3,0.1,0.4,0.1  c0.3,0,0.6-0.1,0.8-0.3l2.9-2.6c0.5,0.2,1,0.3,1.5,0.3c1.6,0,3.4-0.9,5.1-2.6c4.8-4.8,3.9-8.8,3.9-9c-0.1-0.7-0.8-1.1-1.5-0.9  c-0.7,0.1-1.1,0.8-1,1.5c0,0.1,0.5,3-3.2,6.7c-1.6,1.6-3.4,2.3-4.1,1.6c-1.3-1.3-0.7-4.2,1.6-6.6c1.4-1.4,3.4-2.8,3.4-2.8  c0.6-0.4,0.7-1.2,0.4-1.7c-0.4-0.6-1.2-0.7-1.7-0.4c-0.1,0.1-2.3,1.5-3.8,3.1c-2.8,3-3.7,6.6-2.3,9l-2.2,2l-2.7-0.9  c0.1-0.1,0.1-0.3,0.2-0.4c0.6-1.7,1-4-0.2-5.2c-1.2-1.2-3.5-0.8-5.2-0.2c-0.1,0-0.3,0.1-0.4,0.2L24,16.7l2-2.2  c0.8,0.4,1.6,0.7,2.6,0.7c2.1,0,4.4-1,6.4-3c1.6-1.6,3.1-3.7,3.1-3.8c0.4-0.6,0.2-1.4-0.4-1.7c-0.6-0.4-1.4-0.2-1.7,0.4  c0,0-1.3,2-2.8,3.4c-2.4,2.2-5.2,2.9-6.6,1.6c-0.7-0.7,0-2.5,1.6-4.1c3.7-3.7,6.6-3.2,6.7-3.2c0.7,0.2,1.3-0.3,1.5-1  c0.1-0.7-0.3-1.3-1-1.5c-0.2,0-4.2-0.9-9,3.9c-2.3,2.3-3.1,4.8-2.3,6.6l-2.5,2.9c-0.3,0.3-0.4,0.8-0.2,1.2l1.2,3.7  c-0.5,0.3-0.9,0.5-1.3,0.8L20.1,18l-0.2-3.9c0-0.7-0.6-1.2-1.3-1.2c-0.7,0-1.2,0.6-1.2,1.3l0.2,4.1c0,0.1,0,0.3,0.1,0.4l1.6,4.1  c0,0.1,0.1,0.2,0.1,0.2c-0.1,0.1-0.1,0.2-0.2,0.2l-2.6-2.6l0.3-1.9c0.1-0.7-0.3-1.3-1-1.5c-0.7-0.1-1.3,0.3-1.5,1L14,20.9  c-0.1,0.4,0.1,0.8,0.3,1.1l3.2,3.2c-0.4,0.5-0.7,1-0.9,1.2C16.3,26.7,16,27,15.7,27.2z M7.5,36.2c-0.1,0.3-0.3,0.5-0.5,0.9  c-0.2,0.3-0.4,0.7-0.6,1.1c-0.8-1.1-1.3-2-1.5-2.6C5.8,35.6,6.8,35.9,7.5,36.2z M14.4,45.1c-0.6-0.3-1.5-0.7-2.6-1.5  c0.4-0.2,0.8-0.4,1.1-0.6c0.3-0.2,0.6-0.3,0.9-0.5C14.1,43.2,14.4,44.2,14.4,45.1z M17.2,36.8c-2.1,2.1-2.5,2.3-5.5,4  c-0.6,0.3-1.2,0.7-2,1.1c-0.3-0.2-0.5-0.5-0.8-0.8c-0.3-0.3-0.5-0.6-0.8-0.8c0.4-0.8,0.8-1.4,1.1-2c1.7-3,1.9-3.4,4-5.5  c2.1-2.1,2.6-2.5,3.8-3.4c0.3,0.6,0.8,1.4,1.6,2.1c0.8,0.8,1.5,1.3,2.1,1.6C19.7,34.2,19.3,34.7,17.2,36.8z M28.7,21.2  C29.2,22,28,26,26.1,28c-1.5,1.5-3,2.6-3.6,3.1c-0.4-0.1-1.2-0.4-2.1-1.4c-1-1-1.3-1.7-1.4-2.1c0.5-0.7,1.6-2.1,3.1-3.6  C24,22,28,20.8,28.7,21.2z"></path></svg>