<svg fill="#FFFFFF" xmlns="http://www.w3.org/2000/svg" xmlns:xlink="http://www.w3.org/1999/xlink" version="1.1" x="0px"
     y="0px" viewBox="0 0 50 50" enable-background="new 0 0 50 50" xml:space="preserve"><g><circle cx="17.1" cy="21.7" r="1.4"></circle><path
        d="M21.4,37.5c0,1.4,2.2,2.6,3.6,2.6s3.6-1.2,3.6-2.6c0-1.4-2.2-2.6-3.6-2.6S21.4,36,21.4,37.5z"></path><circle
        cx="32.9" cy="21.7" r="1.4"></circle><path
        d="M21.1,10.2c1.2-0.3,2.5-0.4,3.9-0.4c1.4,0,2.7,0.1,3.9,0.4c0.1,0,0.2,0,0.3,0c0.6,0,1.1-0.4,1.2-1   c0.1-0.7-0.3-1.3-1-1.5c-1.4-0.3-2.9-0.5-4.4-0.5c0,0,0,0,0,0c0,0,0,0,0,0c-1.5,0-3,0.2-4.4,0.5c-0.7,0.1-1.1,0.8-1,1.5   C19.7,9.9,20.4,10.4,21.1,10.2z"></path><path
        d="M45.7,37.8l-8.9,0c0.3-0.5,0.6-1.1,0.9-1.6l8.1-0.9c0.7-0.1,1.2-0.7,1.1-1.4c-0.1-0.7-0.7-1.2-1.4-1.1   L39,33.5c1.4-3.2,2.2-6.6,2.2-10c0-2.4-0.4-4.9-1.2-7.2c2.9-1.3,6.2-2.8,6.2-6.6c0-3.7-3-6.8-6.8-6.8c-3.8,0-5.3,3.3-6.6,6.2l2.3,1   c1.3-2.9,2.2-4.8,4.4-4.8c2.3,0,4.2,1.9,4.2,4.2c0,2.1-1.8,3-4.7,4.3c-0.2-0.4-0.4-0.7-0.6-1c-0.4-0.6-1.1-0.8-1.7-0.4   c-0.6,0.4-0.8,1.1-0.4,1.7c1.4,2.2,2.3,5.9,2.3,9.1c0,3.4-1.1,7-2.7,10.3l-5.5,0.6c-0.7,0.1-1.2,0.7-1.1,1.4   c0.1,0.6,0.6,1.1,1.2,1.1c0,0,0.1,0,0.1,0l3.8-0.4c-0.3,0.4-0.5,0.9-0.8,1.3l-3.1,0c0,0,0,0,0,0c-0.7,0-1.2,0.6-1.2,1.2   c0,0.7,0.6,1.3,1.2,1.3l1.1,0c-1.1,1.2-2.2,2.2-3.2,2.9C27.2,44,26,44.5,25,44.5c-1,0-2.2-0.5-3.5-1.3c-1.1-0.7-2.2-1.7-3.2-2.9   l1.1,0c0.7,0,1.2-0.6,1.2-1.3c0-0.7-0.6-1.2-1.2-1.2c0,0,0,0,0,0l-3.1,0c-0.3-0.4-0.6-0.8-0.8-1.3l3.8,0.4c0,0,0.1,0,0.1,0   c0.6,0,1.2-0.5,1.2-1.1c0.1-0.7-0.4-1.3-1.1-1.4l-5.5-0.6c-1.6-3.2-2.7-6.9-2.7-10.3c0-3.2,0.9-7,2.3-9.1c0.4-0.6,0.2-1.4-0.4-1.7   c-0.6-0.4-1.4-0.2-1.7,0.4c-0.2,0.3-0.4,0.6-0.6,1C8,12.8,6.2,11.9,6.2,9.8c0-2.3,1.9-4.2,4.2-4.2c2.1,0,3,1.8,4.4,4.8l0,0   c0.3,0.6,1,0.9,1.6,0.6c0.6-0.3,0.9-1,0.6-1.7C15.8,6.3,14.3,3,10.5,3c-3.7,0-6.8,3-6.8,6.8c0,3.8,3.3,5.3,6.2,6.6   c-0.7,2.2-1.2,4.8-1.2,7.2c0,3.4,0.9,6.8,2.2,10l-6.5-0.7c-0.7-0.1-1.3,0.4-1.4,1.1c-0.1,0.7,0.4,1.3,1.1,1.4l8.1,0.9   c0.3,0.5,0.6,1.1,0.9,1.6l-8.9,0c-0.7,0-1.2,0.6-1.2,1.3c0,0.7,0.6,1.2,1.2,1.2c0,0,0,0,0,0l10.6,0c1.6,2.1,3.4,3.8,5.1,5   c1.7,1.1,3.3,1.7,4.9,1.7c0,0,0,0,0,0c0,0,0,0,0,0c0,0,0,0,0,0c1.5,0,3.1-0.6,4.8-1.7c1.7-1.1,3.5-2.9,5.1-5l10.6,0c0,0,0,0,0,0   c0.7,0,1.2-0.6,1.3-1.2C46.9,38.4,46.3,37.8,45.7,37.8z"></path></g></svg>