<svg fill="#FFFFFF" xmlns="http://www.w3.org/2000/svg" xmlns:xlink="http://www.w3.org/1999/xlink" version="1.1" x="0px"
     y="0px" viewBox="0 0 50 50" enable-background="new 0 0 50 50" xml:space="preserve"><g><path d="M25,39.4c0.4,0,0.8-0.2,1-0.4c0.3-0.3,0.4-0.6,0.4-1c0-0.8-0.6-1.4-1.5-1.4c-0.8,0-1.4,0.7-1.4,1.4   C23.6,38.8,24.2,39.4,25,39.4z"></path><path
        d="M19.2,28.4c0-0.8-0.6-1.4-1.5-1.4c-0.8,0-1.4,0.7-1.4,1.5c0,0.8,0.7,1.4,1.4,1.4C18.6,29.8,19.2,29.2,19.2,28.4z"></path><path
        d="M32.1,20.8c-6.3,0-6.3,5-6.3,6.7c0,3.7,3.3,8.3,4.9,10.4c-0.4,0.3-0.8,0.7-1.2,1.1c-1.2,1.2-2.3,2.2-4.4,2.2   c-2.1,0-3.2-1-4.4-2.2c-0.4-0.4-0.8-0.7-1.2-1.1c1.6-2,4.9-6.6,4.9-10.4c0-1.7,0-6.7-6.3-6.7c-6.3,0-12.9,9.9-13.6,11   c-0.4,0.6-0.2,1.4,0.4,1.7c0.6,0.4,1.4,0.2,1.7-0.4c1.8-2.8,7.3-9.9,11.5-9.9c2.9,0,3.8,1.1,3.8,4.2c0,2.9-2.9,7.1-4.6,9.1   c-0.6-0.2-1.3-0.3-2-0.3c-2.6,0-4.6,1.3-4.7,1.4C9.8,38,9.7,38.8,10,39.3c0.4,0.6,1.1,0.8,1.7,0.4c0,0,1.6-1,3.4-1   c1.6,0,2.6,0.9,3.7,2c1.4,1.3,3,2.9,6.1,2.9c3.1,0,4.8-1.6,6.1-2.9c1.2-1.1,2.1-2,3.7-2c1.8,0,3.3,1,3.4,1c0.6,0.4,1.4,0.2,1.7-0.4   c0.4-0.6,0.2-1.4-0.4-1.7c-0.1-0.1-2.2-1.4-4.7-1.4c-0.8,0-1.4,0.1-2,0.3c-1.6-2-4.6-6.2-4.6-9.1c0-3.1,1-4.2,3.8-4.2   c4.2,0,9.7,7.2,11.5,9.9c0.4,0.6,1.1,0.7,1.7,0.4c0.6-0.4,0.7-1.1,0.4-1.7C44.9,30.7,38.3,20.8,32.1,20.8z"></path><path
        d="M12.1,34c0.6-0.4,0.7-1.2,0.4-1.7c-0.4-0.6-1.2-0.7-1.7-0.4c-1.5,1-3.4,3.1-3.4,3.2c-0.5,0.5-0.4,1.3,0.1,1.8   C7.7,37,8,37.1,8.2,37.1c0.3,0,0.7-0.1,0.9-0.4C9.6,36.2,11.1,34.6,12.1,34z"></path><path
        d="M30.8,28.4c0,0.4,0.1,0.8,0.4,1c0.3,0.3,0.6,0.4,1,0.4c0.8,0,1.4-0.7,1.4-1.4c0-0.8-0.6-1.4-1.5-1.4   C31.4,26.9,30.8,27.6,30.8,28.4z"></path><path
        d="M43.1,17.6c1.4-3.2,2.9-7.6,1.6-9.8c-0.5-0.9-1.5-1.4-2.7-1.4c-3.1,0-6.2,2.2-8.4,4.3c-2.6-1-5.5-1.5-8.6-1.5   s-6,0.5-8.6,1.5C14.2,8.6,11.2,6.4,8,6.4c-1.2,0-2.2,0.5-2.7,1.4C4,10,5.5,14.4,6.9,17.6c-4.7,5.9-5.8,12.6-5.8,12.9   c-0.1,0.7,0.4,1.3,1,1.4c0.1,0,0.1,0,0.2,0c0.6,0,1.1-0.4,1.2-1.1c0-0.1,0.9-5.6,4.6-10.7c0.1,0.3,0.3,0.5,0.4,0.7   c0.2,0.4,0.7,0.7,1.1,0.7c0.2,0,0.4,0,0.6-0.2c0.6-0.3,0.8-1.1,0.5-1.7c-0.4-0.8-0.8-1.6-1.2-2.4c0,0,0-0.1,0-0.1   c-1.6-3.5-2.7-7-2-8.1C7.5,9,7.6,8.9,8,8.9c3.8,0,8.2,4.9,9.6,6.8c0.4,0.6,1.2,0.7,1.7,0.3c0.6-0.4,0.7-1.2,0.3-1.7   c-0.1-0.1-0.5-0.7-1.3-1.6c2.1-0.6,4.3-1,6.7-1s4.6,0.3,6.7,1c-0.8,0.9-1.2,1.5-1.3,1.6c-0.4,0.6-0.3,1.3,0.3,1.7   c0.6,0.4,1.3,0.3,1.7-0.3c1.4-1.9,5.8-6.8,9.6-6.8c0.4,0,0.5,0.1,0.6,0.2c0.6,1-0.4,4.6-2,8.1c0,0,0,0.1,0,0.1   c-0.4,0.8-0.8,1.6-1.2,2.4c-0.3,0.6-0.1,1.4,0.5,1.7c0.2,0.1,0.4,0.2,0.6,0.2c0.4,0,0.9-0.2,1.1-0.7c0.1-0.2,0.2-0.5,0.4-0.7   c3.6,5.1,4.6,10.7,4.6,10.7c0.1,0.6,0.6,1.1,1.2,1.1c0.1,0,0.1,0,0.2,0c0.7-0.1,1.1-0.7,1-1.4C48.8,30.2,47.7,23.5,43.1,17.6z"></path><path
        d="M39.3,31.9c-0.6-0.4-1.4-0.2-1.7,0.4c-0.4,0.6-0.2,1.4,0.4,1.7c1,0.7,2.5,2.2,2.9,2.7c0.2,0.3,0.6,0.4,0.9,0.4   c0.3,0,0.6-0.1,0.8-0.3c0.5-0.5,0.6-1.2,0.1-1.8C42.6,35,40.8,32.9,39.3,31.9z"></path></g></svg>