<svg fill="#FFFFFF" xmlns="http://www.w3.org/2000/svg" xmlns:xlink="http://www.w3.org/1999/xlink" version="1.1" x="0px"
     y="0px" viewBox="0 0 50 50" enable-background="new 0 0 50 50" xml:space="preserve"><path d="M42.9,21.6c1.4,0.8,2.8,1.7,3.9,1.7c0.5,0,1-0.2,1.4-0.6c0.5-0.5,0.9-1.4,0.1-3.3c-1.4-3.3-5.9-8.3-11.4-8.3  c-3.1,0-4.7,0.9-6,1.7c-0.5,0.3-0.9,0.5-1.4,0.7c0.2-1.9,0.1-4.8-1.3-6.6c-0.8-1-2-1.5-3.4-1.5c-1.4,0-2.6,0.5-3.4,1.5  c-1.5,1.8-1.5,4.7-1.3,6.6c-0.5-0.2-0.9-0.4-1.4-0.7c-1.3-0.7-2.9-1.7-6-1.7c-5.4,0-10,4.9-11.4,8.3c-0.8,1.8-0.3,2.8,0.1,3.3  C3,24,5,22.9,7.1,21.6c1.5-0.9,3.5-2.1,4.9-2.1c2,0,3.3,0.6,4.1,1.1c-1.3,1.6-2,3.7-2,5.9c0,2.5,0.8,5.1,2.2,7.4c-2,2.1-3,5-3,6.8  c0,2.3,1.4,3.8,3.6,3.8c2.1,0,5.1-1.9,5.8-5.2c0.3,0.1,0.7,0.2,1.1,0.2v1c0,0.7,0.6,1.2,1.2,1.2s1.2-0.6,1.2-1.2v-1  c0.4-0.1,0.7-0.1,1.1-0.2c0.7,3.4,3.6,5.2,5.8,5.2c2.2,0,3.6-1.5,3.6-3.8c0-1.8-1-4.7-3-6.8c1.4-2.3,2.2-5,2.2-7.4  c0-2.3-0.7-4.3-2-5.9c0.8-0.5,2.2-1.1,4.1-1.1C39.5,19.6,41.4,20.7,42.9,21.6z M5.8,19.5c-0.6,0.4-1.4,0.8-2,1.1  c0.3-0.7,0.9-1.9,2.1-3.2c1-1.1,3.7-3.7,7-3.7c2.5,0,3.6,0.6,4.7,1.3c1.1,0.6,2.2,1.3,4.1,1.3c0.4,0,0.7-0.2,1-0.5  c0.2-0.3,0.3-0.7,0.3-1c-0.2-1.2-0.6-4.8,0.6-6.2c0.2-0.3,0.6-0.6,1.4-0.6c0.8,0,1.2,0.3,1.4,0.6c1.2,1.5,0.8,5.1,0.6,6.3  c-0.1,0.4,0,0.7,0.3,1c0.2,0.3,0.6,0.5,1,0.5c1.9,0,3-0.7,4.1-1.3c1.2-0.7,2.3-1.3,4.7-1.3c3.3,0,6,2.6,7,3.7  c1.2,1.3,1.8,2.5,2.1,3.2c-0.6-0.3-1.4-0.7-2-1.1c-1.9-1.1-4.1-2.4-6.2-2.4c-2.9,0-4.9,1-5.9,1.8c-1.9-1.4-4.3-2.3-7.1-2.3  s-5.3,0.8-7.1,2.3c-1.1-0.7-3-1.8-5.9-1.8C9.8,17.1,7.7,18.3,5.8,19.5z M25,37.2c-4.5,0-8.4-5.9-8.4-10.7c0-2.1,0.8-3.9,2.1-5.2  c0,0,0,0,0,0c0,0,0,0,0-0.1c1.5-1.4,3.7-2.2,6.2-2.2c2.6,0,4.7,0.8,6.2,2.3c0,0,0,0,0,0c0,0,0,0,0,0c1.3,1.3,2.1,3.1,2.1,5.2  C33.4,31.4,29.5,37.2,25,37.2z M16.9,42.1c-0.7,0-1.1-0.2-1.1-1.3c0-1.2,0.7-3.2,2-4.7c0.7,0.9,1.6,1.6,2.5,2.2  C20.2,40.9,17.9,42.1,16.9,42.1z M34.2,40.8c0,1.1-0.4,1.3-1.1,1.3c-0.9,0-3.2-1.2-3.4-3.9c0.9-0.6,1.7-1.3,2.5-2.2  C33.4,37.5,34.2,39.6,34.2,40.8z"></path></svg>